<svg width="17" height="22" viewBox="0 0 17 22" fill="none" xmlns="http://www.w3.org/2000/svg">
<path d="M8.3864 18.4381H13.5C13.5 15.5273 12.5703 14.8945 11.8471 14.5149C11.2686 14.2111 10.7108 14.3883 10.5042 14.5149C10.1732 14.6699 9.2864 14.9799 8.3864 14.9799" stroke="black" stroke-linejoin="round"/>
<path d="M8.38643 18.4381H3.2728C3.2728 15.5273 4.20255 14.8945 4.92569 14.5149C5.5042 14.2111 6.06205 14.3883 6.26866 14.5149C6.59959 14.6699 7.48643 14.9799 8.38643 14.9799" stroke="black" stroke-linejoin="round"/>
<circle cx="8.38634" cy="10.2037" r="2.79545" stroke="black"/>
<path d="M10.6429 1H1V21H16V6M10.6429 1L16 6M10.6429 1V6H16" stroke="black" stroke-linejoin="round"/>
</svg>
