<svg width="1921" height="986" viewBox="0 0 1921 986" fill="none" xmlns="http://www.w3.org/2000/svg">
<path fill-rule="evenodd" clip-rule="evenodd" d="M1921 1L75 1.00006L84.2188 21.0589L93.4375 41.1177C111.875 83.883 410.333 84.2665 559.371 83.883C677.358 84.6503 944.382 96.5453 1068.58 137.987C1192.78 179.428 1455.66 179.812 1571.58 174.823C1740.32 167.605 1851.38 153.938 1921 137.011V1Z" fill="#E6F2F4"/>
<path fill-rule="evenodd" clip-rule="evenodd" d="M1921 752.919C1792.54 696.128 1617.94 707.132 1544.59 749.764C1472.68 791.557 1382.52 793.765 1322.13 795.245C1311.1 795.515 1301.07 795.76 1292.32 796.218C1246.97 798.59 1197.84 807.749 1178.95 812.032C929.518 895.057 1116.59 961.938 1241.3 985L1921 985V752.919Z" fill="#E6F2F4"/>
<path fill-rule="evenodd" clip-rule="evenodd" d="M1921 617.143C1894.77 615.828 1869.63 615.951 1845.43 616.069C1838.58 616.103 1831.8 616.136 1825.1 616.136C1721.14 616.136 1608.52 642.673 1495.9 804.548C1405.81 934.049 1311.09 977.039 1274.99 982.346L1262 985L1921 985V617.143Z" fill="#0168B7"/>
<path fill-rule="evenodd" clip-rule="evenodd" d="M1921 659.786C1890.82 642.609 1862.3 632.197 1835.21 625.911C1792.94 616.1 1754.19 616.343 1718.18 616.569L1718.18 616.569C1712.85 616.602 1707.57 616.635 1702.36 616.635C1661.85 616.635 1619.61 623.263 1576.52 650.123C1533.44 676.979 1489.57 724.032 1445.71 804.799C1410.68 869.33 1374.75 912.289 1344.1 939.769C1313.43 967.261 1288.05 979.239 1274.13 981.862L1274.12 981.865L1274.1 981.87L1263.99 984.516L1264.11 985.5L1921 985.5V984.5L1268 984.5L1274.34 982.842C1288.51 980.165 1314.03 968.058 1344.76 940.514C1375.52 912.948 1411.51 869.895 1446.59 805.276C1490.39 724.606 1534.16 677.708 1577.05 650.972C1619.93 624.24 1661.97 617.635 1702.36 617.635C1707.58 617.635 1712.85 617.602 1718.18 617.569L1718.19 617.569C1754.21 617.344 1792.84 617.102 1834.99 626.885C1862.12 633.183 1890.72 643.638 1921 660.937V659.786Z" fill="#0168B7"/>
<path d="M1091.64 53L68 53L73.0993 70.2096L78.1988 87.4191C88.3977 124.11 253.492 124.439 335.934 124.11C401.2 124.768 548.906 134.974 617.607 170.528C686.308 206.083 831.724 206.412 895.845 202.133C1217.36 180.8 1160.34 93.8221 1091.64 53Z" fill="#E6F2F4"/>
<path d="M635.436 845.318C913.83 848.922 994.476 939.941 1000 985L1.00006 985L1.00003 602C150.14 605.004 240.097 627.533 315.851 731.169C376.454 814.077 554.159 841.813 635.436 845.318Z" fill="#E6F2F4"/>
<path d="M543.986 845.318C782.251 848.922 851.273 939.941 856 985L1 985L0.999967 602C128.642 605.004 205.633 627.533 270.467 731.169C322.334 814.077 474.424 841.813 543.986 845.318Z" fill="#A0D9F6"/>
<path d="M543.986 829.635C782.251 833.645 851.273 934.882 856 985L1 985L1.00003 602.5C128.642 605.841 205.633 587.4 270.467 702.671C322.334 794.887 474.424 825.737 543.986 829.635Z" stroke="#A0D9F6"/>
<path d="M0.999964 1L0.999972 39.9297C19.0339 79.8325 203.888 88.9975 294.06 88.5922C365.447 89.4031 527.005 101.974 602.149 145.77C677.292 189.566 836.346 189.971 906.479 184.7C1258.15 158.422 1195.78 51.2842 1120.64 0.999957L0.999964 1Z" fill="#FDD100"/>
<path d="M488 1L1781.53 0.999955C1798.61 110.684 1811.42 146.674 1679.08 196.375C1546.73 246.075 1290.59 227.223 1171.05 151.816C1051.52 76.4078 974.676 91.8321 842.334 86.6907C709.993 81.5493 637.418 67.8387 569.113 42.1315C514.468 21.5658 492.269 6.14145 488 1Z" fill="#A0D9F6"/>
<path d="M633 0.999997L1832.3 0.999955C1848.13 110.684 1860 146.674 1737.3 196.375C1614.6 246.075 1377.12 227.223 1266.29 151.816C1155.47 76.4078 1084.22 91.8321 961.52 86.6907C838.82 81.5493 771.533 67.8387 708.203 42.1315C657.54 21.5658 636.958 6.14145 633 0.999997Z" stroke="#A0D9F6"/>
<circle cx="771.806" cy="821.306" r="4.04984" transform="rotate(139.733 771.806 821.306)" fill="#E6F2F4"/>
<circle cx="821.249" cy="779.424" r="4.04984" transform="rotate(139.733 821.249 779.424)" fill="#E6F2F4"/>
<circle cx="747.084" cy="842.246" r="4.04984" transform="rotate(139.733 747.084 842.246)" fill="#E6F2F4"/>
<circle cx="796.528" cy="800.365" r="4.04984" transform="rotate(139.733 796.528 800.365)" fill="#E6F2F4"/>
<circle cx="722.363" cy="863.188" r="4.04984" transform="rotate(139.733 722.363 863.188)" fill="#E6F2F4"/>
<circle cx="697.641" cy="884.128" r="4.04984" transform="rotate(139.733 697.641 884.128)" fill="#E6F2F4"/>
<circle cx="833.611" cy="768.954" r="4.04984" transform="rotate(139.733 833.611 768.954)" fill="#E6F2F4"/>
<circle cx="759.445" cy="831.776" r="4.04984" transform="rotate(139.733 759.445 831.776)" fill="#E6F2F4"/>
<circle cx="808.889" cy="789.894" r="4.04984" transform="rotate(139.733 808.889 789.894)" fill="#E6F2F4"/>
<circle cx="734.723" cy="852.717" r="4.04984" transform="rotate(139.733 734.723 852.717)" fill="#E6F2F4"/>
<circle cx="784.167" cy="810.836" r="4.04984" transform="rotate(139.733 784.167 810.836)" fill="#E6F2F4"/>
<circle cx="710.002" cy="873.658" r="4.04984" transform="rotate(139.733 710.002 873.658)" fill="#E6F2F4"/>
<circle cx="685.279" cy="894.599" r="4.04984" transform="rotate(139.733 685.279 894.599)" fill="#E6F2F4"/>
<circle cx="1802.64" cy="635.061" r="4.04984" transform="rotate(139.733 1802.64 635.061)" fill="#E6F2F4"/>
<circle cx="1852.09" cy="593.179" r="4.04984" transform="rotate(139.733 1852.09 593.179)" fill="#E6F2F4"/>
<circle cx="1777.92" cy="656.001" r="4.04984" transform="rotate(139.733 1777.92 656.001)" fill="#E6F2F4"/>
<circle cx="1827.37" cy="614.119" r="4.04984" transform="rotate(139.733 1827.37 614.119)" fill="#E6F2F4"/>
<circle cx="1753.2" cy="676.942" r="4.04984" transform="rotate(139.733 1753.2 676.942)" fill="#E6F2F4"/>
<circle cx="1728.48" cy="697.883" r="4.04984" transform="rotate(139.733 1728.48 697.883)" fill="#E6F2F4"/>
<circle cx="1864.45" cy="582.708" r="4.04984" transform="rotate(139.733 1864.45 582.708)" fill="#E6F2F4"/>
<circle cx="1790.28" cy="645.53" r="4.04984" transform="rotate(139.733 1790.28 645.53)" fill="#E6F2F4"/>
<circle cx="1839.73" cy="603.648" r="4.04984" transform="rotate(139.733 1839.73 603.648)" fill="#E6F2F4"/>
<circle cx="1765.56" cy="666.471" r="4.04984" transform="rotate(139.733 1765.56 666.471)" fill="#E6F2F4"/>
<circle cx="1815.01" cy="624.59" r="4.04984" transform="rotate(139.733 1815.01 624.59)" fill="#E6F2F4"/>
<circle cx="1740.84" cy="687.412" r="4.04984" transform="rotate(139.733 1740.84 687.412)" fill="#E6F2F4"/>
<circle cx="1716.12" cy="708.353" r="4.04984" transform="rotate(139.733 1716.12 708.353)" fill="#E6F2F4"/>
<circle cx="1288.23" cy="816.061" r="4.04984" transform="rotate(139.733 1288.23 816.061)" fill="#FDD100"/>
<circle cx="1337.68" cy="774.179" r="4.04984" transform="rotate(139.733 1337.68 774.179)" fill="#FDD100"/>
<circle cx="1263.51" cy="837.001" r="4.04984" transform="rotate(139.733 1263.51 837.001)" fill="#FDD100"/>
<circle cx="1312.96" cy="795.119" r="4.04984" transform="rotate(139.733 1312.96 795.119)" fill="#FDD100"/>
<circle cx="1238.79" cy="857.942" r="4.04984" transform="rotate(139.733 1238.79 857.942)" fill="#FDD100"/>
<circle cx="1214.07" cy="878.883" r="4.04984" transform="rotate(139.733 1214.07 878.883)" fill="#FDD100"/>
<circle cx="1350.04" cy="763.708" r="4.04984" transform="rotate(139.733 1350.04 763.708)" fill="#FDD100"/>
<circle cx="1275.87" cy="826.53" r="4.04984" transform="rotate(139.733 1275.87 826.53)" fill="#FDD100"/>
<circle cx="1325.32" cy="784.648" r="4.04984" transform="rotate(139.733 1325.32 784.648)" fill="#FDD100"/>
<circle cx="1251.15" cy="847.471" r="4.04984" transform="rotate(139.733 1251.15 847.471)" fill="#FDD100"/>
<circle cx="1300.59" cy="805.59" r="4.04984" transform="rotate(139.733 1300.59 805.59)" fill="#FDD100"/>
<circle cx="1226.43" cy="868.412" r="4.04984" transform="rotate(139.733 1226.43 868.412)" fill="#FDD100"/>
<circle cx="1201.71" cy="889.353" r="4.04984" transform="rotate(139.733 1201.71 889.353)" fill="#FDD100"/>
<circle cx="901.401" cy="100.434" r="4.04984" transform="rotate(139.733 901.401 100.434)" fill="#A0D9F6"/>
<circle cx="950.844" cy="58.5521" r="4.04984" transform="rotate(139.733 950.844 58.5521)" fill="#A0D9F6"/>
<circle cx="876.679" cy="121.374" r="4.04984" transform="rotate(139.733 876.679 121.374)" fill="#A0D9F6"/>
<circle cx="926.122" cy="79.4925" r="4.04984" transform="rotate(139.733 926.122 79.4925)" fill="#A0D9F6"/>
<circle cx="851.958" cy="142.315" r="4.04984" transform="rotate(139.733 851.958 142.315)" fill="#A0D9F6"/>
<circle cx="827.236" cy="163.256" r="4.04984" transform="rotate(139.733 827.236 163.256)" fill="#A0D9F6"/>
<circle cx="963.205" cy="48.0813" r="4.04984" transform="rotate(139.733 963.205 48.0813)" fill="#A0D9F6"/>
<circle cx="889.04" cy="110.903" r="4.04984" transform="rotate(139.733 889.04 110.903)" fill="#A0D9F6"/>
<circle cx="938.484" cy="69.0218" r="4.04984" transform="rotate(139.733 938.484 69.0218)" fill="#A0D9F6"/>
<circle cx="864.318" cy="131.845" r="4.04984" transform="rotate(139.733 864.318 131.845)" fill="#A0D9F6"/>
<circle cx="913.762" cy="89.9632" r="4.04984" transform="rotate(139.733 913.762 89.9632)" fill="#A0D9F6"/>
<circle cx="839.597" cy="152.785" r="4.04984" transform="rotate(139.733 839.597 152.785)" fill="#A0D9F6"/>
<circle cx="814.874" cy="173.726" r="4.04984" transform="rotate(139.733 814.874 173.726)" fill="#A0D9F6"/>
<circle cx="200.778" cy="161.181" r="4.04984" transform="rotate(139.733 200.778 161.181)" fill="#FDD100"/>
<circle cx="250.221" cy="119.3" r="4.04984" transform="rotate(139.733 250.221 119.3)" fill="#FDD100"/>
<circle cx="176.056" cy="182.122" r="4.04984" transform="rotate(139.733 176.056 182.122)" fill="#FDD100"/>
<circle cx="225.499" cy="140.24" r="4.04984" transform="rotate(139.733 225.499 140.24)" fill="#FDD100"/>
<circle cx="151.335" cy="203.063" r="4.04984" transform="rotate(139.733 151.335 203.063)" fill="#FDD100"/>
<circle cx="126.613" cy="224.003" r="4.04984" transform="rotate(139.733 126.613 224.003)" fill="#FDD100"/>
<circle cx="262.582" cy="108.829" r="4.04984" transform="rotate(139.733 262.582 108.829)" fill="#FDD100"/>
<circle cx="188.417" cy="171.651" r="4.04984" transform="rotate(139.733 188.417 171.651)" fill="#FDD100"/>
<circle cx="237.861" cy="129.769" r="4.04984" transform="rotate(139.733 237.861 129.769)" fill="#FDD100"/>
<circle cx="163.695" cy="192.592" r="4.04984" transform="rotate(139.733 163.695 192.592)" fill="#FDD100"/>
<circle cx="213.139" cy="150.711" r="4.04984" transform="rotate(139.733 213.139 150.711)" fill="#FDD100"/>
<circle cx="138.974" cy="213.533" r="4.04984" transform="rotate(139.733 138.974 213.533)" fill="#FDD100"/>
<circle cx="114.251" cy="234.474" r="4.04984" transform="rotate(139.733 114.251 234.474)" fill="#FDD100"/>
<circle cx="1351.23" cy="181.061" r="4.04984" transform="rotate(139.733 1351.23 181.061)" fill="#FDD100"/>
<circle cx="1400.68" cy="139.179" r="4.04984" transform="rotate(139.733 1400.68 139.179)" fill="#FDD100"/>
<circle cx="1326.51" cy="202.001" r="4.04984" transform="rotate(139.733 1326.51 202.001)" fill="#FDD100"/>
<circle cx="1375.96" cy="160.119" r="4.04984" transform="rotate(139.733 1375.96 160.119)" fill="#FDD100"/>
<circle cx="1301.79" cy="222.942" r="4.04984" transform="rotate(139.733 1301.79 222.942)" fill="#FDD100"/>
<circle cx="1277.07" cy="243.883" r="4.04984" transform="rotate(139.733 1277.07 243.883)" fill="#FDD100"/>
<circle cx="1413.04" cy="128.708" r="4.04984" transform="rotate(139.733 1413.04 128.708)" fill="#FDD100"/>
<circle cx="1338.87" cy="191.53" r="4.04984" transform="rotate(139.733 1338.87 191.53)" fill="#FDD100"/>
<circle cx="1388.32" cy="149.648" r="4.04984" transform="rotate(139.733 1388.32 149.648)" fill="#FDD100"/>
<circle cx="1314.15" cy="212.471" r="4.04984" transform="rotate(139.733 1314.15 212.471)" fill="#FDD100"/>
<circle cx="1363.59" cy="170.59" r="4.04984" transform="rotate(139.733 1363.59 170.59)" fill="#FDD100"/>
<circle cx="1289.43" cy="233.412" r="4.04984" transform="rotate(139.733 1289.43 233.412)" fill="#FDD100"/>
<circle cx="1264.71" cy="254.353" r="4.04984" transform="rotate(139.733 1264.71 254.353)" fill="#FDD100"/>
<ellipse rx="4.34941" ry="4.46184" transform="matrix(-0.710489 0.703709 -0.586664 -0.80983 109.433 607.889)" fill="#E6F2F4"/>
<ellipse rx="4.34941" ry="4.46184" transform="matrix(-0.710489 0.703709 -0.586664 -0.80983 158.876 558.917)" fill="#E6F2F4"/>
<ellipse rx="4.34941" ry="4.46184" transform="matrix(-0.710489 0.703709 -0.586664 -0.80983 84.7111 632.374)" fill="#E6F2F4"/>
<ellipse rx="4.34941" ry="4.46184" transform="matrix(-0.710489 0.703709 -0.586664 -0.80983 134.154 583.403)" fill="#E6F2F4"/>
<ellipse rx="4.34941" ry="4.46184" transform="matrix(-0.710489 0.703709 -0.586664 -0.80983 59.9904 656.86)" fill="#E6F2F4"/>
<ellipse rx="4.34941" ry="4.46184" transform="matrix(-0.710489 0.703709 -0.586664 -0.80983 35.2678 681.346)" fill="#E6F2F4"/>
<ellipse rx="4.34941" ry="4.46184" transform="matrix(-0.710489 0.703709 -0.586664 -0.80983 171.238 546.674)" fill="#E6F2F4"/>
<ellipse rx="4.34941" ry="4.46184" transform="matrix(-0.710489 0.703709 -0.586664 -0.80983 97.0725 620.131)" fill="#E6F2F4"/>
<ellipse rx="4.34941" ry="4.46184" transform="matrix(-0.710489 0.703709 -0.586664 -0.80983 146.516 571.16)" fill="#E6F2F4"/>
<ellipse rx="4.34941" ry="4.46184" transform="matrix(-0.710489 0.703709 -0.586664 -0.80983 72.3498 644.618)" fill="#E6F2F4"/>
<ellipse rx="4.34941" ry="4.46184" transform="matrix(-0.710489 0.703709 -0.586664 -0.80983 121.794 595.646)" fill="#E6F2F4"/>
<ellipse rx="4.34941" ry="4.46184" transform="matrix(-0.710489 0.703709 -0.586664 -0.80983 47.6291 669.102)" fill="#E6F2F4"/>
<ellipse rx="4.34941" ry="4.46184" transform="matrix(-0.710489 0.703709 -0.586664 -0.80983 22.9064 693.589)" fill="#E6F2F4"/>
<circle cx="1552.3" cy="942.645" r="4.04984" transform="rotate(-90 1552.3 942.645)" fill="#E6F2F4"/>
<circle cx="1552.3" cy="845.449" r="4.04984" transform="rotate(-90 1552.3 845.449)" fill="#E6F2F4"/>
<circle cx="1572.54" cy="942.645" r="4.04984" transform="rotate(-90 1572.54 942.645)" fill="#E6F2F4"/>
<circle cx="1572.54" cy="845.449" r="4.04984" transform="rotate(-90 1572.54 845.449)" fill="#E6F2F4"/>
<circle cx="1552.3" cy="910.246" r="4.04984" transform="rotate(-90 1552.3 910.246)" fill="#E6F2F4"/>
<circle cx="1552.3" cy="813.05" r="4.04984" transform="rotate(-90 1552.3 813.05)" fill="#E6F2F4"/>
<circle cx="1572.54" cy="910.246" r="4.04984" transform="rotate(-90 1572.54 910.246)" fill="#E6F2F4"/>
<circle cx="1572.54" cy="813.05" r="4.04984" transform="rotate(-90 1572.54 813.05)" fill="#E6F2F4"/>
<circle cx="1552.3" cy="877.847" r="4.04984" transform="rotate(-90 1552.3 877.847)" fill="#E6F2F4"/>
<circle cx="1572.54" cy="877.847" r="4.04984" transform="rotate(-90 1572.54 877.847)" fill="#E6F2F4"/>
<circle cx="1552.3" cy="926.445" r="4.04984" transform="rotate(-90 1552.3 926.445)" fill="#E6F2F4"/>
<circle cx="1552.3" cy="829.249" r="4.04984" transform="rotate(-90 1552.3 829.249)" fill="#E6F2F4"/>
<circle cx="1572.54" cy="926.445" r="4.04984" transform="rotate(-90 1572.54 926.445)" fill="#E6F2F4"/>
<circle cx="1572.54" cy="829.249" r="4.04984" transform="rotate(-90 1572.54 829.249)" fill="#E6F2F4"/>
<circle cx="1552.3" cy="894.047" r="4.04984" transform="rotate(-90 1552.3 894.047)" fill="#E6F2F4"/>
<circle cx="1572.54" cy="894.047" r="4.04984" transform="rotate(-90 1572.54 894.047)" fill="#E6F2F4"/>
<circle cx="1552.3" cy="861.648" r="4.04984" transform="rotate(-90 1552.3 861.648)" fill="#E6F2F4"/>
<circle cx="1572.54" cy="861.648" r="4.04984" transform="rotate(-90 1572.54 861.648)" fill="#E6F2F4"/>
<circle cx="1451.05" cy="942.645" r="4.04984" transform="rotate(-90 1451.05 942.645)" fill="#E6F2F4"/>
<circle cx="1451.05" cy="845.449" r="4.04984" transform="rotate(-90 1451.05 845.449)" fill="#E6F2F4"/>
<circle cx="1451.05" cy="910.246" r="4.04984" transform="rotate(-90 1451.05 910.246)" fill="#E6F2F4"/>
<circle cx="1451.05" cy="813.05" r="4.04984" transform="rotate(-90 1451.05 813.05)" fill="#E6F2F4"/>
<circle cx="1451.05" cy="877.847" r="4.04984" transform="rotate(-90 1451.05 877.847)" fill="#E6F2F4"/>
<circle cx="1451.05" cy="926.445" r="4.04984" transform="rotate(-90 1451.05 926.445)" fill="#E6F2F4"/>
<circle cx="1451.05" cy="829.249" r="4.04984" transform="rotate(-90 1451.05 829.249)" fill="#E6F2F4"/>
<circle cx="1451.05" cy="894.047" r="4.04984" transform="rotate(-90 1451.05 894.047)" fill="#E6F2F4"/>
<circle cx="1451.05" cy="861.648" r="4.04984" transform="rotate(-90 1451.05 861.648)" fill="#E6F2F4"/>
<circle cx="1511.8" cy="942.645" r="4.04984" transform="rotate(-90 1511.8 942.645)" fill="#E6F2F4"/>
<circle cx="1511.8" cy="845.449" r="4.04984" transform="rotate(-90 1511.8 845.449)" fill="#E6F2F4"/>
<circle cx="1532.05" cy="942.645" r="4.04984" transform="rotate(-90 1532.05 942.645)" fill="#E6F2F4"/>
<circle cx="1532.05" cy="845.449" r="4.04984" transform="rotate(-90 1532.05 845.449)" fill="#E6F2F4"/>
<circle cx="1511.8" cy="910.246" r="4.04984" transform="rotate(-90 1511.8 910.246)" fill="#E6F2F4"/>
<circle cx="1511.8" cy="813.05" r="4.04984" transform="rotate(-90 1511.8 813.05)" fill="#E6F2F4"/>
<circle cx="1532.05" cy="910.246" r="4.04984" transform="rotate(-90 1532.05 910.246)" fill="#E6F2F4"/>
<circle cx="1532.05" cy="813.05" r="4.04984" transform="rotate(-90 1532.05 813.05)" fill="#E6F2F4"/>
<circle cx="1511.8" cy="877.847" r="4.04984" transform="rotate(-90 1511.8 877.847)" fill="#E6F2F4"/>
<circle cx="1532.05" cy="877.847" r="4.04984" transform="rotate(-90 1532.05 877.847)" fill="#E6F2F4"/>
<circle cx="1511.8" cy="926.445" r="4.04984" transform="rotate(-90 1511.8 926.445)" fill="#E6F2F4"/>
<circle cx="1511.8" cy="829.249" r="4.04984" transform="rotate(-90 1511.8 829.249)" fill="#E6F2F4"/>
<circle cx="1532.05" cy="926.445" r="4.04984" transform="rotate(-90 1532.05 926.445)" fill="#E6F2F4"/>
<circle cx="1532.05" cy="829.249" r="4.04984" transform="rotate(-90 1532.05 829.249)" fill="#E6F2F4"/>
<circle cx="1511.8" cy="894.047" r="4.04984" transform="rotate(-90 1511.8 894.047)" fill="#E6F2F4"/>
<circle cx="1532.05" cy="894.047" r="4.04984" transform="rotate(-90 1532.05 894.047)" fill="#E6F2F4"/>
<circle cx="1511.8" cy="861.648" r="4.04984" transform="rotate(-90 1511.8 861.648)" fill="#E6F2F4"/>
<circle cx="1532.05" cy="861.648" r="4.04984" transform="rotate(-90 1532.05 861.648)" fill="#E6F2F4"/>
<circle cx="1471.3" cy="942.645" r="4.04984" transform="rotate(-90 1471.3 942.645)" fill="#E6F2F4"/>
<circle cx="1471.3" cy="845.449" r="4.04984" transform="rotate(-90 1471.3 845.449)" fill="#E6F2F4"/>
<circle cx="1491.55" cy="942.645" r="4.04984" transform="rotate(-90 1491.55 942.645)" fill="#E6F2F4"/>
<circle cx="1491.55" cy="845.449" r="4.04984" transform="rotate(-90 1491.55 845.449)" fill="#E6F2F4"/>
<circle cx="1471.3" cy="910.246" r="4.04984" transform="rotate(-90 1471.3 910.246)" fill="#E6F2F4"/>
<circle cx="1471.3" cy="813.05" r="4.04984" transform="rotate(-90 1471.3 813.05)" fill="#E6F2F4"/>
<circle cx="1491.55" cy="910.246" r="4.04984" transform="rotate(-90 1491.55 910.246)" fill="#E6F2F4"/>
<circle cx="1491.55" cy="813.05" r="4.04984" transform="rotate(-90 1491.55 813.05)" fill="#E6F2F4"/>
<circle cx="1471.3" cy="877.847" r="4.04984" transform="rotate(-90 1471.3 877.847)" fill="#E6F2F4"/>
<circle cx="1491.55" cy="877.847" r="4.04984" transform="rotate(-90 1491.55 877.847)" fill="#E6F2F4"/>
<circle cx="1471.3" cy="926.445" r="4.04984" transform="rotate(-90 1471.3 926.445)" fill="#E6F2F4"/>
<circle cx="1471.3" cy="829.249" r="4.04984" transform="rotate(-90 1471.3 829.249)" fill="#E6F2F4"/>
<circle cx="1491.55" cy="926.445" r="4.04984" transform="rotate(-90 1491.55 926.445)" fill="#E6F2F4"/>
<circle cx="1491.55" cy="829.249" r="4.04984" transform="rotate(-90 1491.55 829.249)" fill="#E6F2F4"/>
<circle cx="1471.3" cy="894.047" r="4.04984" transform="rotate(-90 1471.3 894.047)" fill="#E6F2F4"/>
<circle cx="1491.55" cy="894.047" r="4.04984" transform="rotate(-90 1491.55 894.047)" fill="#E6F2F4"/>
<circle cx="1471.3" cy="861.648" r="4.04984" transform="rotate(-90 1471.3 861.648)" fill="#E6F2F4"/>
<circle cx="1491.55" cy="861.648" r="4.04984" transform="rotate(-90 1491.55 861.648)" fill="#E6F2F4"/>
<circle cx="466.732" cy="815.26" r="4.04984" transform="rotate(180 466.732 815.26)" fill="#E6F2F4"/>
<circle cx="369.536" cy="815.26" r="4.04984" transform="rotate(180 369.536 815.26)" fill="#E6F2F4"/>
<circle cx="466.732" cy="795.01" r="4.04984" transform="rotate(180 466.732 795.01)" fill="#E6F2F4"/>
<circle cx="369.536" cy="795.01" r="4.04984" transform="rotate(180 369.536 795.01)" fill="#E6F2F4"/>
<circle cx="434.334" cy="815.26" r="4.04984" transform="rotate(180 434.334 815.26)" fill="#E6F2F4"/>
<circle cx="337.138" cy="815.26" r="4.04984" transform="rotate(180 337.138 815.26)" fill="#E6F2F4"/>
<circle cx="434.334" cy="795.01" r="4.04984" transform="rotate(180 434.334 795.01)" fill="#E6F2F4"/>
<circle cx="337.138" cy="795.01" r="4.04984" transform="rotate(180 337.138 795.01)" fill="#E6F2F4"/>
<circle cx="401.935" cy="815.26" r="4.04984" transform="rotate(180 401.935 815.26)" fill="#E6F2F4"/>
<circle cx="401.935" cy="795.01" r="4.04984" transform="rotate(180 401.935 795.01)" fill="#E6F2F4"/>
<circle cx="450.533" cy="815.26" r="4.04984" transform="rotate(180 450.533 815.26)" fill="#E6F2F4"/>
<circle cx="353.337" cy="815.26" r="4.04984" transform="rotate(180 353.337 815.26)" fill="#E6F2F4"/>
<circle cx="450.533" cy="795.01" r="4.04984" transform="rotate(180 450.533 795.01)" fill="#E6F2F4"/>
<circle cx="353.337" cy="795.01" r="4.04984" transform="rotate(180 353.337 795.01)" fill="#E6F2F4"/>
<circle cx="418.135" cy="815.26" r="4.04984" transform="rotate(180 418.135 815.26)" fill="#E6F2F4"/>
<circle cx="418.135" cy="795.01" r="4.04984" transform="rotate(180 418.135 795.01)" fill="#E6F2F4"/>
<circle cx="385.735" cy="815.26" r="4.04984" transform="rotate(180 385.735 815.26)" fill="#E6F2F4"/>
<circle cx="385.735" cy="795.01" r="4.04984" transform="rotate(180 385.735 795.01)" fill="#E6F2F4"/>
<circle cx="466.732" cy="916.506" r="4.04984" transform="rotate(180 466.732 916.506)" fill="#E6F2F4"/>
<circle cx="369.536" cy="916.506" r="4.04984" transform="rotate(180 369.536 916.506)" fill="#E6F2F4"/>
<circle cx="434.334" cy="916.506" r="4.04984" transform="rotate(180 434.334 916.506)" fill="#E6F2F4"/>
<circle cx="337.138" cy="916.506" r="4.04984" transform="rotate(180 337.138 916.506)" fill="#E6F2F4"/>
<circle cx="401.935" cy="916.506" r="4.04984" transform="rotate(180 401.935 916.506)" fill="#E6F2F4"/>
<circle cx="450.533" cy="916.506" r="4.04984" transform="rotate(180 450.533 916.506)" fill="#E6F2F4"/>
<circle cx="353.337" cy="916.506" r="4.04984" transform="rotate(180 353.337 916.506)" fill="#E6F2F4"/>
<circle cx="418.135" cy="916.506" r="4.04984" transform="rotate(180 418.135 916.506)" fill="#E6F2F4"/>
<circle cx="385.735" cy="916.506" r="4.04984" transform="rotate(180 385.735 916.506)" fill="#E6F2F4"/>
<circle cx="466.732" cy="855.758" r="4.04984" transform="rotate(180 466.732 855.758)" fill="#E6F2F4"/>
<circle cx="369.536" cy="855.758" r="4.04984" transform="rotate(180 369.536 855.758)" fill="#E6F2F4"/>
<circle cx="466.732" cy="835.509" r="4.04984" transform="rotate(180 466.732 835.509)" fill="#E6F2F4"/>
<circle cx="369.536" cy="835.509" r="4.04984" transform="rotate(180 369.536 835.509)" fill="#E6F2F4"/>
<circle cx="434.334" cy="855.758" r="4.04984" transform="rotate(180 434.334 855.758)" fill="#E6F2F4"/>
<circle cx="337.138" cy="855.758" r="4.04984" transform="rotate(180 337.138 855.758)" fill="#E6F2F4"/>
<circle cx="434.334" cy="835.509" r="4.04984" transform="rotate(180 434.334 835.509)" fill="#E6F2F4"/>
<circle cx="337.138" cy="835.509" r="4.04984" transform="rotate(180 337.138 835.509)" fill="#E6F2F4"/>
<circle cx="401.935" cy="855.758" r="4.04984" transform="rotate(180 401.935 855.758)" fill="#E6F2F4"/>
<circle cx="401.935" cy="835.509" r="4.04984" transform="rotate(180 401.935 835.509)" fill="#E6F2F4"/>
<circle cx="450.533" cy="855.758" r="4.04984" transform="rotate(180 450.533 855.758)" fill="#E6F2F4"/>
<circle cx="353.337" cy="855.758" r="4.04984" transform="rotate(180 353.337 855.758)" fill="#E6F2F4"/>
<circle cx="450.533" cy="835.509" r="4.04984" transform="rotate(180 450.533 835.509)" fill="#E6F2F4"/>
<circle cx="353.337" cy="835.509" r="4.04984" transform="rotate(180 353.337 835.509)" fill="#E6F2F4"/>
<circle cx="418.135" cy="855.758" r="4.04984" transform="rotate(180 418.135 855.758)" fill="#E6F2F4"/>
<circle cx="418.135" cy="835.509" r="4.04984" transform="rotate(180 418.135 835.509)" fill="#E6F2F4"/>
<circle cx="385.735" cy="855.758" r="4.04984" transform="rotate(180 385.735 855.758)" fill="#E6F2F4"/>
<circle cx="385.735" cy="835.509" r="4.04984" transform="rotate(180 385.735 835.509)" fill="#E6F2F4"/>
<circle cx="466.732" cy="896.257" r="4.04984" transform="rotate(180 466.732 896.257)" fill="#E6F2F4"/>
<circle cx="369.536" cy="896.257" r="4.04984" transform="rotate(180 369.536 896.257)" fill="#E6F2F4"/>
<circle cx="466.732" cy="876.007" r="4.04984" transform="rotate(180 466.732 876.007)" fill="#E6F2F4"/>
<circle cx="369.536" cy="876.007" r="4.04984" transform="rotate(180 369.536 876.007)" fill="#E6F2F4"/>
<circle cx="434.334" cy="896.257" r="4.04984" transform="rotate(180 434.334 896.257)" fill="#E6F2F4"/>
<circle cx="337.138" cy="896.257" r="4.04984" transform="rotate(180 337.138 896.257)" fill="#E6F2F4"/>
<circle cx="434.334" cy="876.007" r="4.04984" transform="rotate(180 434.334 876.007)" fill="#E6F2F4"/>
<circle cx="337.138" cy="876.007" r="4.04984" transform="rotate(180 337.138 876.007)" fill="#E6F2F4"/>
<circle cx="401.935" cy="896.257" r="4.04984" transform="rotate(180 401.935 896.257)" fill="#E6F2F4"/>
<circle cx="401.935" cy="876.007" r="4.04984" transform="rotate(180 401.935 876.007)" fill="#E6F2F4"/>
<circle cx="450.533" cy="896.257" r="4.04984" transform="rotate(180 450.533 896.257)" fill="#E6F2F4"/>
<circle cx="353.337" cy="896.257" r="4.04984" transform="rotate(180 353.337 896.257)" fill="#E6F2F4"/>
<circle cx="450.533" cy="876.007" r="4.04984" transform="rotate(180 450.533 876.007)" fill="#E6F2F4"/>
<circle cx="353.337" cy="876.007" r="4.04984" transform="rotate(180 353.337 876.007)" fill="#E6F2F4"/>
<circle cx="418.135" cy="896.257" r="4.04984" transform="rotate(180 418.135 896.257)" fill="#E6F2F4"/>
<circle cx="418.135" cy="876.007" r="4.04984" transform="rotate(180 418.135 876.007)" fill="#E6F2F4"/>
<circle cx="385.735" cy="896.257" r="4.04984" transform="rotate(180 385.735 896.257)" fill="#E6F2F4"/>
<circle cx="385.735" cy="876.007" r="4.04984" transform="rotate(180 385.735 876.007)" fill="#E6F2F4"/>
<circle cx="1768.64" cy="123.299" r="4.04984" transform="rotate(180 1768.64 123.299)" fill="#E6F2F4"/>
<circle cx="1671.45" cy="123.299" r="4.04984" transform="rotate(180 1671.45 123.299)" fill="#E6F2F4"/>
<circle cx="1768.64" cy="103.05" r="4.04984" transform="rotate(180 1768.64 103.05)" fill="#E6F2F4"/>
<circle cx="1671.45" cy="103.05" r="4.04984" transform="rotate(180 1671.45 103.05)" fill="#E6F2F4"/>
<circle cx="1736.25" cy="123.299" r="4.04984" transform="rotate(180 1736.25 123.299)" fill="#E6F2F4"/>
<circle cx="1639.05" cy="123.299" r="4.04984" transform="rotate(180 1639.05 123.299)" fill="#E6F2F4"/>
<circle cx="1736.25" cy="103.05" r="4.04984" transform="rotate(180 1736.25 103.05)" fill="#E6F2F4"/>
<circle cx="1639.05" cy="103.05" r="4.04984" transform="rotate(180 1639.05 103.05)" fill="#E6F2F4"/>
<circle cx="1703.85" cy="123.299" r="4.04984" transform="rotate(180 1703.85 123.299)" fill="#E6F2F4"/>
<circle cx="1703.85" cy="103.05" r="4.04984" transform="rotate(180 1703.85 103.05)" fill="#E6F2F4"/>
<circle cx="1752.45" cy="123.299" r="4.04984" transform="rotate(180 1752.45 123.299)" fill="#E6F2F4"/>
<circle cx="1655.25" cy="123.299" r="4.04984" transform="rotate(180 1655.25 123.299)" fill="#E6F2F4"/>
<circle cx="1752.45" cy="103.05" r="4.04984" transform="rotate(180 1752.45 103.05)" fill="#E6F2F4"/>
<circle cx="1655.25" cy="103.05" r="4.04984" transform="rotate(180 1655.25 103.05)" fill="#E6F2F4"/>
<circle cx="1720.05" cy="123.299" r="4.04984" transform="rotate(180 1720.05 123.299)" fill="#E6F2F4"/>
<circle cx="1720.05" cy="103.05" r="4.04984" transform="rotate(180 1720.05 103.05)" fill="#E6F2F4"/>
<circle cx="1687.65" cy="123.299" r="4.04984" transform="rotate(180 1687.65 123.299)" fill="#E6F2F4"/>
<circle cx="1687.65" cy="103.05" r="4.04984" transform="rotate(180 1687.65 103.05)" fill="#E6F2F4"/>
<circle cx="1768.64" cy="224.545" r="4.04984" transform="rotate(180 1768.64 224.545)" fill="#E6F2F4"/>
<circle cx="1671.45" cy="224.545" r="4.04984" transform="rotate(180 1671.45 224.545)" fill="#E6F2F4"/>
<circle cx="1736.25" cy="224.545" r="4.04984" transform="rotate(180 1736.25 224.545)" fill="#E6F2F4"/>
<circle cx="1639.05" cy="224.545" r="4.04984" transform="rotate(180 1639.05 224.545)" fill="#E6F2F4"/>
<circle cx="1703.85" cy="224.545" r="4.04984" transform="rotate(180 1703.85 224.545)" fill="#E6F2F4"/>
<circle cx="1752.45" cy="224.545" r="4.04984" transform="rotate(180 1752.45 224.545)" fill="#E6F2F4"/>
<circle cx="1655.25" cy="224.545" r="4.04984" transform="rotate(180 1655.25 224.545)" fill="#E6F2F4"/>
<circle cx="1720.05" cy="224.545" r="4.04984" transform="rotate(180 1720.05 224.545)" fill="#E6F2F4"/>
<circle cx="1687.65" cy="224.545" r="4.04984" transform="rotate(180 1687.65 224.545)" fill="#E6F2F4"/>
<circle cx="1768.64" cy="163.798" r="4.04984" transform="rotate(180 1768.64 163.798)" fill="#E6F2F4"/>
<circle cx="1671.45" cy="163.798" r="4.04984" transform="rotate(180 1671.45 163.798)" fill="#E6F2F4"/>
<circle cx="1768.64" cy="143.548" r="4.04984" transform="rotate(180 1768.64 143.548)" fill="#E6F2F4"/>
<circle cx="1671.45" cy="143.548" r="4.04984" transform="rotate(180 1671.45 143.548)" fill="#E6F2F4"/>
<circle cx="1736.25" cy="163.798" r="4.04984" transform="rotate(180 1736.25 163.798)" fill="#E6F2F4"/>
<circle cx="1639.05" cy="163.798" r="4.04984" transform="rotate(180 1639.05 163.798)" fill="#E6F2F4"/>
<circle cx="1736.25" cy="143.548" r="4.04984" transform="rotate(180 1736.25 143.548)" fill="#E6F2F4"/>
<circle cx="1639.05" cy="143.548" r="4.04984" transform="rotate(180 1639.05 143.548)" fill="#E6F2F4"/>
<circle cx="1703.85" cy="163.798" r="4.04984" transform="rotate(180 1703.85 163.798)" fill="#E6F2F4"/>
<circle cx="1703.85" cy="143.548" r="4.04984" transform="rotate(180 1703.85 143.548)" fill="#E6F2F4"/>
<circle cx="1752.45" cy="163.798" r="4.04984" transform="rotate(180 1752.45 163.798)" fill="#E6F2F4"/>
<circle cx="1655.25" cy="163.798" r="4.04984" transform="rotate(180 1655.25 163.798)" fill="#E6F2F4"/>
<circle cx="1752.45" cy="143.548" r="4.04984" transform="rotate(180 1752.45 143.548)" fill="#E6F2F4"/>
<circle cx="1655.25" cy="143.548" r="4.04984" transform="rotate(180 1655.25 143.548)" fill="#E6F2F4"/>
<circle cx="1720.05" cy="163.798" r="4.04984" transform="rotate(180 1720.05 163.798)" fill="#E6F2F4"/>
<circle cx="1720.05" cy="143.548" r="4.04984" transform="rotate(180 1720.05 143.548)" fill="#E6F2F4"/>
<circle cx="1687.65" cy="163.798" r="4.04984" transform="rotate(180 1687.65 163.798)" fill="#E6F2F4"/>
<circle cx="1687.65" cy="143.548" r="4.04984" transform="rotate(180 1687.65 143.548)" fill="#E6F2F4"/>
<circle cx="1768.64" cy="204.296" r="4.04984" transform="rotate(180 1768.64 204.296)" fill="#E6F2F4"/>
<circle cx="1671.45" cy="204.296" r="4.04984" transform="rotate(180 1671.45 204.296)" fill="#E6F2F4"/>
<circle cx="1768.64" cy="184.047" r="4.04984" transform="rotate(180 1768.64 184.047)" fill="#E6F2F4"/>
<circle cx="1671.45" cy="184.047" r="4.04984" transform="rotate(180 1671.45 184.047)" fill="#E6F2F4"/>
<circle cx="1736.25" cy="204.296" r="4.04984" transform="rotate(180 1736.25 204.296)" fill="#E6F2F4"/>
<circle cx="1639.05" cy="204.296" r="4.04984" transform="rotate(180 1639.05 204.296)" fill="#E6F2F4"/>
<circle cx="1736.25" cy="184.047" r="4.04984" transform="rotate(180 1736.25 184.047)" fill="#E6F2F4"/>
<circle cx="1639.05" cy="184.047" r="4.04984" transform="rotate(180 1639.05 184.047)" fill="#E6F2F4"/>
<circle cx="1703.85" cy="204.296" r="4.04984" transform="rotate(180 1703.85 204.296)" fill="#E6F2F4"/>
<circle cx="1703.85" cy="184.047" r="4.04984" transform="rotate(180 1703.85 184.047)" fill="#E6F2F4"/>
<circle cx="1752.45" cy="204.296" r="4.04984" transform="rotate(180 1752.45 204.296)" fill="#E6F2F4"/>
<circle cx="1655.25" cy="204.296" r="4.04984" transform="rotate(180 1655.25 204.296)" fill="#E6F2F4"/>
<circle cx="1752.45" cy="184.047" r="4.04984" transform="rotate(180 1752.45 184.047)" fill="#E6F2F4"/>
<circle cx="1655.25" cy="184.047" r="4.04984" transform="rotate(180 1655.25 184.047)" fill="#E6F2F4"/>
<circle cx="1720.05" cy="204.296" r="4.04984" transform="rotate(180 1720.05 204.296)" fill="#E6F2F4"/>
<circle cx="1720.05" cy="184.047" r="4.04984" transform="rotate(180 1720.05 184.047)" fill="#E6F2F4"/>
<circle cx="1687.65" cy="204.296" r="4.04984" transform="rotate(180 1687.65 204.296)" fill="#E6F2F4"/>
<circle cx="1687.65" cy="184.047" r="4.04984" transform="rotate(180 1687.65 184.047)" fill="#E6F2F4"/>
<circle cx="178.644" cy="356.299" r="4.04984" transform="rotate(180 178.644 356.299)" fill="#0168B7"/>
<circle cx="81.4482" cy="356.299" r="4.04984" transform="rotate(180 81.4482 356.299)" fill="#0168B7"/>
<circle cx="178.644" cy="336.05" r="4.04984" transform="rotate(180 178.644 336.05)" fill="#0168B7"/>
<circle cx="81.4482" cy="336.05" r="4.04984" transform="rotate(180 81.4482 336.05)" fill="#0168B7"/>
<circle cx="146.246" cy="356.299" r="4.04984" transform="rotate(180 146.246 356.299)" fill="#0168B7"/>
<circle cx="49.0498" cy="356.299" r="4.04984" transform="rotate(180 49.0498 356.299)" fill="#0168B7"/>
<circle cx="146.246" cy="336.05" r="4.04984" transform="rotate(180 146.246 336.05)" fill="#0168B7"/>
<circle cx="49.0498" cy="336.05" r="4.04984" transform="rotate(180 49.0498 336.05)" fill="#0168B7"/>
<circle cx="113.847" cy="356.299" r="4.04984" transform="rotate(180 113.847 356.299)" fill="#0168B7"/>
<circle cx="113.847" cy="336.05" r="4.04984" transform="rotate(180 113.847 336.05)" fill="#0168B7"/>
<circle cx="162.445" cy="356.299" r="4.04984" transform="rotate(180 162.445 356.299)" fill="#0168B7"/>
<circle cx="65.249" cy="356.299" r="4.04984" transform="rotate(180 65.249 356.299)" fill="#0168B7"/>
<circle cx="162.445" cy="336.05" r="4.04984" transform="rotate(180 162.445 336.05)" fill="#0168B7"/>
<circle cx="65.249" cy="336.05" r="4.04984" transform="rotate(180 65.249 336.05)" fill="#0168B7"/>
<circle cx="130.047" cy="356.299" r="4.04984" transform="rotate(180 130.047 356.299)" fill="#0168B7"/>
<circle cx="130.047" cy="336.05" r="4.04984" transform="rotate(180 130.047 336.05)" fill="#0168B7"/>
<circle cx="97.6474" cy="356.299" r="4.04984" transform="rotate(180 97.6474 356.299)" fill="#0168B7"/>
<circle cx="97.6474" cy="336.05" r="4.04984" transform="rotate(180 97.6474 336.05)" fill="#0168B7"/>
<circle cx="178.644" cy="457.545" r="4.04984" transform="rotate(180 178.644 457.545)" fill="#0168B7"/>
<circle cx="81.4482" cy="457.545" r="4.04984" transform="rotate(180 81.4482 457.545)" fill="#0168B7"/>
<circle cx="146.246" cy="457.545" r="4.04984" transform="rotate(180 146.246 457.545)" fill="#0168B7"/>
<circle cx="49.0498" cy="457.545" r="4.04984" transform="rotate(180 49.0498 457.545)" fill="#0168B7"/>
<circle cx="113.847" cy="457.545" r="4.04984" transform="rotate(180 113.847 457.545)" fill="#0168B7"/>
<circle cx="162.445" cy="457.545" r="4.04984" transform="rotate(180 162.445 457.545)" fill="#0168B7"/>
<circle cx="65.249" cy="457.545" r="4.04984" transform="rotate(180 65.249 457.545)" fill="#0168B7"/>
<circle cx="130.047" cy="457.545" r="4.04984" transform="rotate(180 130.047 457.545)" fill="#0168B7"/>
<circle cx="97.6474" cy="457.545" r="4.04984" transform="rotate(180 97.6474 457.545)" fill="#0168B7"/>
<circle cx="178.644" cy="396.798" r="4.04984" transform="rotate(180 178.644 396.798)" fill="#0168B7"/>
<circle cx="81.4482" cy="396.798" r="4.04984" transform="rotate(180 81.4482 396.798)" fill="#0168B7"/>
<circle cx="178.644" cy="376.548" r="4.04984" transform="rotate(180 178.644 376.548)" fill="#0168B7"/>
<circle cx="81.4482" cy="376.548" r="4.04984" transform="rotate(180 81.4482 376.548)" fill="#0168B7"/>
<circle cx="146.246" cy="396.798" r="4.04984" transform="rotate(180 146.246 396.798)" fill="#0168B7"/>
<circle cx="49.0498" cy="396.798" r="4.04984" transform="rotate(180 49.0498 396.798)" fill="#0168B7"/>
<circle cx="146.246" cy="376.548" r="4.04984" transform="rotate(180 146.246 376.548)" fill="#0168B7"/>
<circle cx="49.0498" cy="376.548" r="4.04984" transform="rotate(180 49.0498 376.548)" fill="#0168B7"/>
<circle cx="113.847" cy="396.798" r="4.04984" transform="rotate(180 113.847 396.798)" fill="#0168B7"/>
<circle cx="113.847" cy="376.548" r="4.04984" transform="rotate(180 113.847 376.548)" fill="#0168B7"/>
<circle cx="162.445" cy="396.798" r="4.04984" transform="rotate(180 162.445 396.798)" fill="#0168B7"/>
<circle cx="65.249" cy="396.798" r="4.04984" transform="rotate(180 65.249 396.798)" fill="#0168B7"/>
<circle cx="162.445" cy="376.548" r="4.04984" transform="rotate(180 162.445 376.548)" fill="#0168B7"/>
<circle cx="65.249" cy="376.548" r="4.04984" transform="rotate(180 65.249 376.548)" fill="#0168B7"/>
<circle cx="130.047" cy="396.798" r="4.04984" transform="rotate(180 130.047 396.798)" fill="#0168B7"/>
<circle cx="130.047" cy="376.548" r="4.04984" transform="rotate(180 130.047 376.548)" fill="#0168B7"/>
<circle cx="97.6474" cy="396.798" r="4.04984" transform="rotate(180 97.6474 396.798)" fill="#0168B7"/>
<circle cx="97.6474" cy="376.548" r="4.04984" transform="rotate(180 97.6474 376.548)" fill="#0168B7"/>
<circle cx="178.644" cy="437.296" r="4.04984" transform="rotate(180 178.644 437.296)" fill="#0168B7"/>
<circle cx="81.4482" cy="437.296" r="4.04984" transform="rotate(180 81.4482 437.296)" fill="#0168B7"/>
<circle cx="178.644" cy="417.047" r="4.04984" transform="rotate(180 178.644 417.047)" fill="#0168B7"/>
<circle cx="81.4482" cy="417.047" r="4.04984" transform="rotate(180 81.4482 417.047)" fill="#0168B7"/>
<circle cx="146.246" cy="437.296" r="4.04984" transform="rotate(180 146.246 437.296)" fill="#0168B7"/>
<circle cx="49.0498" cy="437.296" r="4.04984" transform="rotate(180 49.0498 437.296)" fill="#0168B7"/>
<circle cx="146.246" cy="417.047" r="4.04984" transform="rotate(180 146.246 417.047)" fill="#0168B7"/>
<circle cx="49.0498" cy="417.047" r="4.04984" transform="rotate(180 49.0498 417.047)" fill="#0168B7"/>
<circle cx="113.847" cy="437.296" r="4.04984" transform="rotate(180 113.847 437.296)" fill="#0168B7"/>
<circle cx="113.847" cy="417.047" r="4.04984" transform="rotate(180 113.847 417.047)" fill="#0168B7"/>
<circle cx="162.445" cy="437.296" r="4.04984" transform="rotate(180 162.445 437.296)" fill="#0168B7"/>
<circle cx="65.249" cy="437.296" r="4.04984" transform="rotate(180 65.249 437.296)" fill="#0168B7"/>
<circle cx="162.445" cy="417.047" r="4.04984" transform="rotate(180 162.445 417.047)" fill="#0168B7"/>
<circle cx="65.249" cy="417.047" r="4.04984" transform="rotate(180 65.249 417.047)" fill="#0168B7"/>
<circle cx="130.047" cy="437.296" r="4.04984" transform="rotate(180 130.047 437.296)" fill="#0168B7"/>
<circle cx="130.047" cy="417.047" r="4.04984" transform="rotate(180 130.047 417.047)" fill="#0168B7"/>
<circle cx="97.6474" cy="437.296" r="4.04984" transform="rotate(180 97.6474 437.296)" fill="#0168B7"/>
<circle cx="97.6474" cy="417.047" r="4.04984" transform="rotate(180 97.6474 417.047)" fill="#0168B7"/>
<circle cx="1893.64" cy="434.299" r="4.04984" transform="rotate(180 1893.64 434.299)" fill="#A0D9F6"/>
<circle cx="1796.45" cy="434.299" r="4.04984" transform="rotate(180 1796.45 434.299)" fill="#A0D9F6"/>
<circle cx="1893.64" cy="414.05" r="4.04984" transform="rotate(180 1893.64 414.05)" fill="#A0D9F6"/>
<circle cx="1796.45" cy="414.05" r="4.04984" transform="rotate(180 1796.45 414.05)" fill="#A0D9F6"/>
<circle cx="1861.25" cy="434.299" r="4.04984" transform="rotate(180 1861.25 434.299)" fill="#A0D9F6"/>
<circle cx="1764.05" cy="434.299" r="4.04984" transform="rotate(180 1764.05 434.299)" fill="#A0D9F6"/>
<circle cx="1861.25" cy="414.05" r="4.04984" transform="rotate(180 1861.25 414.05)" fill="#A0D9F6"/>
<circle cx="1764.05" cy="414.05" r="4.04984" transform="rotate(180 1764.05 414.05)" fill="#A0D9F6"/>
<circle cx="1828.85" cy="434.299" r="4.04984" transform="rotate(180 1828.85 434.299)" fill="#A0D9F6"/>
<circle cx="1828.85" cy="414.05" r="4.04984" transform="rotate(180 1828.85 414.05)" fill="#A0D9F6"/>
<circle cx="1877.45" cy="434.299" r="4.04984" transform="rotate(180 1877.45 434.299)" fill="#A0D9F6"/>
<circle cx="1780.25" cy="434.299" r="4.04984" transform="rotate(180 1780.25 434.299)" fill="#A0D9F6"/>
<circle cx="1877.45" cy="414.05" r="4.04984" transform="rotate(180 1877.45 414.05)" fill="#A0D9F6"/>
<circle cx="1780.25" cy="414.05" r="4.04984" transform="rotate(180 1780.25 414.05)" fill="#A0D9F6"/>
<circle cx="1845.05" cy="434.299" r="4.04984" transform="rotate(180 1845.05 434.299)" fill="#A0D9F6"/>
<circle cx="1845.05" cy="414.05" r="4.04984" transform="rotate(180 1845.05 414.05)" fill="#A0D9F6"/>
<circle cx="1812.65" cy="434.299" r="4.04984" transform="rotate(180 1812.65 434.299)" fill="#A0D9F6"/>
<circle cx="1812.65" cy="414.05" r="4.04984" transform="rotate(180 1812.65 414.05)" fill="#A0D9F6"/>
<circle cx="1893.64" cy="535.545" r="4.04984" transform="rotate(180 1893.64 535.545)" fill="#A0D9F6"/>
<circle cx="1796.45" cy="535.545" r="4.04984" transform="rotate(180 1796.45 535.545)" fill="#A0D9F6"/>
<circle cx="1861.25" cy="535.545" r="4.04984" transform="rotate(180 1861.25 535.545)" fill="#A0D9F6"/>
<circle cx="1764.05" cy="535.545" r="4.04984" transform="rotate(180 1764.05 535.545)" fill="#A0D9F6"/>
<circle cx="1828.85" cy="535.545" r="4.04984" transform="rotate(180 1828.85 535.545)" fill="#A0D9F6"/>
<circle cx="1877.45" cy="535.545" r="4.04984" transform="rotate(180 1877.45 535.545)" fill="#A0D9F6"/>
<circle cx="1780.25" cy="535.545" r="4.04984" transform="rotate(180 1780.25 535.545)" fill="#A0D9F6"/>
<circle cx="1845.05" cy="535.545" r="4.04984" transform="rotate(180 1845.05 535.545)" fill="#A0D9F6"/>
<circle cx="1812.65" cy="535.545" r="4.04984" transform="rotate(180 1812.65 535.545)" fill="#A0D9F6"/>
<circle cx="1893.64" cy="474.798" r="4.04984" transform="rotate(180 1893.64 474.798)" fill="#A0D9F6"/>
<circle cx="1796.45" cy="474.798" r="4.04984" transform="rotate(180 1796.45 474.798)" fill="#A0D9F6"/>
<circle cx="1893.64" cy="454.548" r="4.04984" transform="rotate(180 1893.64 454.548)" fill="#A0D9F6"/>
<circle cx="1796.45" cy="454.548" r="4.04984" transform="rotate(180 1796.45 454.548)" fill="#A0D9F6"/>
<circle cx="1861.25" cy="474.798" r="4.04984" transform="rotate(180 1861.25 474.798)" fill="#A0D9F6"/>
<circle cx="1764.05" cy="474.798" r="4.04984" transform="rotate(180 1764.05 474.798)" fill="#A0D9F6"/>
<circle cx="1861.25" cy="454.548" r="4.04984" transform="rotate(180 1861.25 454.548)" fill="#A0D9F6"/>
<circle cx="1764.05" cy="454.548" r="4.04984" transform="rotate(180 1764.05 454.548)" fill="#A0D9F6"/>
<circle cx="1828.85" cy="474.798" r="4.04984" transform="rotate(180 1828.85 474.798)" fill="#A0D9F6"/>
<circle cx="1828.85" cy="454.548" r="4.04984" transform="rotate(180 1828.85 454.548)" fill="#A0D9F6"/>
<circle cx="1877.45" cy="474.798" r="4.04984" transform="rotate(180 1877.45 474.798)" fill="#A0D9F6"/>
<circle cx="1780.25" cy="474.798" r="4.04984" transform="rotate(180 1780.25 474.798)" fill="#A0D9F6"/>
<circle cx="1877.45" cy="454.548" r="4.04984" transform="rotate(180 1877.45 454.548)" fill="#A0D9F6"/>
<circle cx="1780.25" cy="454.548" r="4.04984" transform="rotate(180 1780.25 454.548)" fill="#A0D9F6"/>
<circle cx="1845.05" cy="474.798" r="4.04984" transform="rotate(180 1845.05 474.798)" fill="#A0D9F6"/>
<circle cx="1845.05" cy="454.548" r="4.04984" transform="rotate(180 1845.05 454.548)" fill="#A0D9F6"/>
<circle cx="1812.65" cy="474.798" r="4.04984" transform="rotate(180 1812.65 474.798)" fill="#A0D9F6"/>
<circle cx="1812.65" cy="454.548" r="4.04984" transform="rotate(180 1812.65 454.548)" fill="#A0D9F6"/>
<circle cx="1893.64" cy="515.296" r="4.04984" transform="rotate(180 1893.64 515.296)" fill="#A0D9F6"/>
<circle cx="1796.45" cy="515.296" r="4.04984" transform="rotate(180 1796.45 515.296)" fill="#A0D9F6"/>
<circle cx="1893.64" cy="495.047" r="4.04984" transform="rotate(180 1893.64 495.047)" fill="#A0D9F6"/>
<circle cx="1796.45" cy="495.047" r="4.04984" transform="rotate(180 1796.45 495.047)" fill="#A0D9F6"/>
<circle cx="1861.25" cy="515.296" r="4.04984" transform="rotate(180 1861.25 515.296)" fill="#A0D9F6"/>
<circle cx="1764.05" cy="515.296" r="4.04984" transform="rotate(180 1764.05 515.296)" fill="#A0D9F6"/>
<circle cx="1861.25" cy="495.047" r="4.04984" transform="rotate(180 1861.25 495.047)" fill="#A0D9F6"/>
<circle cx="1764.05" cy="495.047" r="4.04984" transform="rotate(180 1764.05 495.047)" fill="#A0D9F6"/>
<circle cx="1828.85" cy="515.296" r="4.04984" transform="rotate(180 1828.85 515.296)" fill="#A0D9F6"/>
<circle cx="1828.85" cy="495.047" r="4.04984" transform="rotate(180 1828.85 495.047)" fill="#A0D9F6"/>
<circle cx="1877.45" cy="515.296" r="4.04984" transform="rotate(180 1877.45 515.296)" fill="#A0D9F6"/>
<circle cx="1780.25" cy="515.296" r="4.04984" transform="rotate(180 1780.25 515.296)" fill="#A0D9F6"/>
<circle cx="1877.45" cy="495.047" r="4.04984" transform="rotate(180 1877.45 495.047)" fill="#A0D9F6"/>
<circle cx="1780.25" cy="495.047" r="4.04984" transform="rotate(180 1780.25 495.047)" fill="#A0D9F6"/>
<circle cx="1845.05" cy="515.296" r="4.04984" transform="rotate(180 1845.05 515.296)" fill="#A0D9F6"/>
<circle cx="1845.05" cy="495.047" r="4.04984" transform="rotate(180 1845.05 495.047)" fill="#A0D9F6"/>
<circle cx="1812.65" cy="515.296" r="4.04984" transform="rotate(180 1812.65 515.296)" fill="#A0D9F6"/>
<circle cx="1812.65" cy="495.047" r="4.04984" transform="rotate(180 1812.65 495.047)" fill="#A0D9F6"/>
<circle cx="632.645" cy="113.299" r="4.04984" transform="rotate(180 632.645 113.299)" fill="#FDD100"/>
<circle cx="535.449" cy="113.299" r="4.04984" transform="rotate(180 535.449 113.299)" fill="#FDD100"/>
<circle cx="632.645" cy="93.0495" r="4.04984" transform="rotate(180 632.645 93.0495)" fill="#FDD100"/>
<circle cx="535.449" cy="93.0495" r="4.04984" transform="rotate(180 535.449 93.0495)" fill="#FDD100"/>
<circle cx="600.247" cy="113.299" r="4.04984" transform="rotate(180 600.247 113.299)" fill="#FDD100"/>
<circle cx="503.051" cy="113.299" r="4.04984" transform="rotate(180 503.051 113.299)" fill="#FDD100"/>
<circle cx="600.247" cy="93.0495" r="4.04984" transform="rotate(180 600.247 93.0495)" fill="#FDD100"/>
<circle cx="503.051" cy="93.0495" r="4.04984" transform="rotate(180 503.051 93.0495)" fill="#FDD100"/>
<circle cx="567.848" cy="113.299" r="4.04984" transform="rotate(180 567.848 113.299)" fill="#FDD100"/>
<circle cx="567.848" cy="93.0495" r="4.04984" transform="rotate(180 567.848 93.0495)" fill="#FDD100"/>
<circle cx="616.446" cy="113.299" r="4.04984" transform="rotate(180 616.446 113.299)" fill="#FDD100"/>
<circle cx="519.25" cy="113.299" r="4.04984" transform="rotate(180 519.25 113.299)" fill="#FDD100"/>
<circle cx="616.446" cy="93.0495" r="4.04984" transform="rotate(180 616.446 93.0495)" fill="#FDD100"/>
<circle cx="519.25" cy="93.0495" r="4.04984" transform="rotate(180 519.25 93.0495)" fill="#FDD100"/>
<circle cx="584.048" cy="113.299" r="4.04984" transform="rotate(180 584.048 113.299)" fill="#FDD100"/>
<circle cx="584.048" cy="93.0495" r="4.04984" transform="rotate(180 584.048 93.0495)" fill="#FDD100"/>
<circle cx="551.648" cy="113.299" r="4.04984" transform="rotate(180 551.648 113.299)" fill="#FDD100"/>
<circle cx="551.648" cy="93.0495" r="4.04984" transform="rotate(180 551.648 93.0495)" fill="#FDD100"/>
<circle cx="632.645" cy="214.545" r="4.04984" transform="rotate(180 632.645 214.545)" fill="#FDD100"/>
<circle cx="535.449" cy="214.545" r="4.04984" transform="rotate(180 535.449 214.545)" fill="#FDD100"/>
<circle cx="600.247" cy="214.545" r="4.04984" transform="rotate(180 600.247 214.545)" fill="#FDD100"/>
<circle cx="503.051" cy="214.545" r="4.04984" transform="rotate(180 503.051 214.545)" fill="#FDD100"/>
<circle cx="567.848" cy="214.545" r="4.04984" transform="rotate(180 567.848 214.545)" fill="#FDD100"/>
<circle cx="616.446" cy="214.545" r="4.04984" transform="rotate(180 616.446 214.545)" fill="#FDD100"/>
<circle cx="519.25" cy="214.545" r="4.04984" transform="rotate(180 519.25 214.545)" fill="#FDD100"/>
<circle cx="584.048" cy="214.545" r="4.04984" transform="rotate(180 584.048 214.545)" fill="#FDD100"/>
<circle cx="551.648" cy="214.545" r="4.04984" transform="rotate(180 551.648 214.545)" fill="#FDD100"/>
<circle cx="632.645" cy="153.797" r="4.04984" transform="rotate(180 632.645 153.797)" fill="#FDD100"/>
<circle cx="535.449" cy="153.797" r="4.04984" transform="rotate(180 535.449 153.797)" fill="#FDD100"/>
<circle cx="632.645" cy="133.548" r="4.04984" transform="rotate(180 632.645 133.548)" fill="#FDD100"/>
<circle cx="535.449" cy="133.548" r="4.04984" transform="rotate(180 535.449 133.548)" fill="#FDD100"/>
<circle cx="600.247" cy="153.797" r="4.04984" transform="rotate(180 600.247 153.797)" fill="#FDD100"/>
<circle cx="503.051" cy="153.797" r="4.04984" transform="rotate(180 503.051 153.797)" fill="#FDD100"/>
<circle cx="600.247" cy="133.548" r="4.04984" transform="rotate(180 600.247 133.548)" fill="#FDD100"/>
<circle cx="503.051" cy="133.548" r="4.04984" transform="rotate(180 503.051 133.548)" fill="#FDD100"/>
<circle cx="567.848" cy="153.797" r="4.04984" transform="rotate(180 567.848 153.797)" fill="#FDD100"/>
<circle cx="567.848" cy="133.548" r="4.04984" transform="rotate(180 567.848 133.548)" fill="#FDD100"/>
<circle cx="616.446" cy="153.797" r="4.04984" transform="rotate(180 616.446 153.797)" fill="#FDD100"/>
<circle cx="519.25" cy="153.797" r="4.04984" transform="rotate(180 519.25 153.797)" fill="#FDD100"/>
<circle cx="616.446" cy="133.548" r="4.04984" transform="rotate(180 616.446 133.548)" fill="#FDD100"/>
<circle cx="519.25" cy="133.548" r="4.04984" transform="rotate(180 519.25 133.548)" fill="#FDD100"/>
<circle cx="584.048" cy="153.797" r="4.04984" transform="rotate(180 584.048 153.797)" fill="#FDD100"/>
<circle cx="584.048" cy="133.548" r="4.04984" transform="rotate(180 584.048 133.548)" fill="#FDD100"/>
<circle cx="551.648" cy="153.797" r="4.04984" transform="rotate(180 551.648 153.797)" fill="#FDD100"/>
<circle cx="551.648" cy="133.548" r="4.04984" transform="rotate(180 551.648 133.548)" fill="#FDD100"/>
<circle cx="632.645" cy="194.296" r="4.04984" transform="rotate(180 632.645 194.296)" fill="#FDD100"/>
<circle cx="535.449" cy="194.296" r="4.04984" transform="rotate(180 535.449 194.296)" fill="#FDD100"/>
<circle cx="632.645" cy="174.046" r="4.04984" transform="rotate(180 632.645 174.046)" fill="#FDD100"/>
<circle cx="535.449" cy="174.046" r="4.04984" transform="rotate(180 535.449 174.046)" fill="#FDD100"/>
<circle cx="600.247" cy="194.296" r="4.04984" transform="rotate(180 600.247 194.296)" fill="#FDD100"/>
<circle cx="503.051" cy="194.296" r="4.04984" transform="rotate(180 503.051 194.296)" fill="#FDD100"/>
<circle cx="600.247" cy="174.046" r="4.04984" transform="rotate(180 600.247 174.046)" fill="#FDD100"/>
<circle cx="503.051" cy="174.046" r="4.04984" transform="rotate(180 503.051 174.046)" fill="#FDD100"/>
<circle cx="567.848" cy="194.296" r="4.04984" transform="rotate(180 567.848 194.296)" fill="#FDD100"/>
<circle cx="567.848" cy="174.046" r="4.04984" transform="rotate(180 567.848 174.046)" fill="#FDD100"/>
<circle cx="616.446" cy="194.296" r="4.04984" transform="rotate(180 616.446 194.296)" fill="#FDD100"/>
<circle cx="519.25" cy="194.296" r="4.04984" transform="rotate(180 519.25 194.296)" fill="#FDD100"/>
<circle cx="616.446" cy="174.046" r="4.04984" transform="rotate(180 616.446 174.046)" fill="#FDD100"/>
<circle cx="519.25" cy="174.046" r="4.04984" transform="rotate(180 519.25 174.046)" fill="#FDD100"/>
<circle cx="584.048" cy="194.296" r="4.04984" transform="rotate(180 584.048 194.296)" fill="#FDD100"/>
<circle cx="584.048" cy="174.046" r="4.04984" transform="rotate(180 584.048 174.046)" fill="#FDD100"/>
<circle cx="551.648" cy="194.296" r="4.04984" transform="rotate(180 551.648 194.296)" fill="#FDD100"/>
<circle cx="551.648" cy="174.046" r="4.04984" transform="rotate(180 551.648 174.046)" fill="#FDD100"/>
<rect x="1388.23" y="771.262" width="133.213" height="13.3441" rx="6.67207" transform="rotate(139.102 1388.23 771.262)" fill="#A0D9F6"/>
<rect x="162.994" y="59.8176" width="133.213" height="13.3441" rx="6.67207" transform="rotate(139.102 162.994 59.8176)" fill="#A0D9F6"/>
<rect x="729.972" y="833.338" width="133.213" height="13.3441" rx="6.67207" transform="rotate(139.102 729.972 833.338)" fill="#0168B7"/>
<rect x="1330.43" y="167.087" width="133.213" height="13.3441" rx="6.67207" transform="rotate(139.102 1330.43 167.087)" fill="#0168B7"/>
<rect x="891.966" y="80.0669" width="133.213" height="13.3441" rx="5" transform="rotate(139.102 891.966 80.0669)" fill="#A0D9F6"/>
<rect x="296.722" y="654.617" width="133.213" height="13.3441" rx="6.67207" transform="rotate(139.102 296.722 654.617)" fill="#FDD100"/>
<rect x="353.337" y="189.413" width="133.213" height="13.3441" rx="6.67207" transform="rotate(139.102 353.337 189.413)" fill="#E6F2F4"/>
<rect width="133.213" height="13.3441" rx="6.67207" transform="matrix(0.761766 -0.647852 -0.647852 -0.761766 1712.64 685.948)" fill="#E6F2F4"/>
<rect x="377.719" y="650.626" width="188.501" height="23.6155" rx="11.8077" transform="rotate(139.102 377.719 650.626)" fill="#FDD100"/>
<rect x="231.842" y="108.667" width="188.501" height="23.6155" rx="11.8077" transform="rotate(139.102 231.842 108.667)" fill="#0168B7"/>
</svg>
