<svg width="781" height="169" viewBox="0 0 781 169" fill="none" xmlns="http://www.w3.org/2000/svg">
<path d="M195.023 36.3359L192.118 35.5896C192.088 35.7065 192.065 35.8251 192.049 35.9448L195.023 36.3359ZM201.82 9.875V6.875C200.451 6.875 199.255 7.8023 198.915 9.12864L201.82 9.875ZM205.383 9.875L208.378 10.05C208.426 9.22534 208.132 8.41734 207.565 7.81647C206.998 7.21559 206.209 6.875 205.383 6.875V9.875ZM204.984 16.6953L207.883 17.4668C207.935 17.2717 207.967 17.0718 207.979 16.8703L204.984 16.6953ZM197.719 44V47C199.078 47 200.268 46.0855 200.618 44.7714L197.719 44ZM194.016 44L191.041 43.6089C190.929 44.4653 191.191 45.3288 191.76 45.9782C192.33 46.6276 193.152 47 194.016 47V44ZM189.938 9.875L192.874 9.25895C192.582 7.86978 191.357 6.875 189.938 6.875V9.875ZM195.445 36.125L198.439 35.9379C198.43 35.7937 198.411 35.6503 198.381 35.509L195.445 36.125ZM195.938 44V47C196.766 47 197.557 46.6577 198.124 46.0541C198.691 45.4505 198.983 44.6394 198.932 43.8129L195.938 44ZM192 44L189.077 44.6765C189.392 46.0368 190.604 47 192 47V44ZM184.102 9.875V6.875C183.187 6.875 182.322 7.2922 181.753 8.00811C181.184 8.72403 180.973 9.66046 181.179 10.5515L184.102 9.875ZM213.094 36.0547L210.156 35.4446C210.129 35.5788 210.11 35.7148 210.101 35.8516L213.094 36.0547ZM218.531 9.875V6.875C217.11 6.875 215.883 7.87292 215.594 9.26492L218.531 9.875ZM224.391 9.875L227.313 10.5515C227.52 9.66046 227.308 8.72403 226.739 8.00811C226.17 7.2922 225.305 6.875 224.391 6.875V9.875ZM216.492 44V47C217.888 47 219.1 46.0368 219.415 44.6765L216.492 44ZM212.555 44L209.562 43.7969C209.505 44.6259 209.795 45.4412 210.363 46.0483C210.93 46.6554 211.724 47 212.555 47V44ZM206.766 9.875L209.674 9.13773C209.336 7.80694 208.139 6.875 206.766 6.875V9.875ZM213.492 36.4062L216.467 36.0206C216.452 35.9022 216.43 35.7847 216.4 35.669L213.492 36.4062ZM214.477 44V47C215.339 47 216.161 46.6285 216.73 45.9803C217.3 45.3321 217.563 44.4701 217.452 43.6143L214.477 44ZM210.773 44L207.871 44.7598C208.217 46.0795 209.409 47 210.773 47V44ZM203.625 16.6953L200.63 16.86C200.641 17.061 200.672 17.2604 200.723 17.4551L203.625 16.6953ZM203.25 9.875V6.875C202.426 6.875 201.638 7.21412 201.071 7.81273C200.505 8.41134 200.209 9.2167 200.255 10.0397L203.25 9.875ZM197.929 37.0823L204.726 10.6214L198.915 9.12864L192.118 35.5896L197.929 37.0823ZM201.82 12.875H205.383V6.875H201.82V12.875ZM202.388 9.70004L201.989 16.5204L207.979 16.8703L208.378 10.05L202.388 9.70004ZM202.085 15.9239L194.82 43.2286L200.618 44.7714L207.883 17.4668L202.085 15.9239ZM197.719 41H194.016V47H197.719V41ZM196.99 44.3911L197.998 36.7271L192.049 35.9448L191.041 43.6089L196.99 44.3911ZM187.001 10.491L192.509 36.741L198.381 35.509L192.874 9.25895L187.001 10.491ZM192.451 36.3121L192.943 44.1871L198.932 43.8129L198.439 35.9379L192.451 36.3121ZM195.938 41H192V47H195.938V41ZM194.923 43.3235L187.024 9.19852L181.179 10.5515L189.077 44.6765L194.923 43.3235ZM184.102 12.875H189.938V6.875H184.102V12.875ZM216.031 36.6648L221.469 10.4851L215.594 9.26492L210.156 35.4446L216.031 36.6648ZM218.531 12.875H224.391V6.875H218.531V12.875ZM221.468 9.19852L213.569 43.3235L219.415 44.6765L227.313 10.5515L221.468 9.19852ZM216.492 41H212.555V47H216.492V41ZM215.548 44.2031L216.087 36.2578L210.101 35.8516L209.562 43.7969L215.548 44.2031ZM203.858 10.6123L210.584 37.1435L216.4 35.669L209.674 9.13773L203.858 10.6123ZM210.517 36.7919L211.501 44.3857L217.452 43.6143L216.467 36.0206L210.517 36.7919ZM214.477 41H210.773V47H214.477V41ZM213.676 43.2402L206.527 15.9355L200.723 17.4551L207.871 44.7598L213.676 43.2402ZM206.62 16.5306L206.245 9.7103L200.255 10.0397L200.63 16.86L206.62 16.5306ZM203.25 12.875H206.766V6.875H203.25V12.875ZM258.766 39.3359H261.766C261.766 37.6791 260.423 36.3359 258.766 36.3359V39.3359ZM258.766 44V47C260.423 47 261.766 45.6569 261.766 44H258.766ZM240.649 44H237.649C237.649 45.6569 238.992 47 240.649 47V44ZM240.649 39.3359V36.3359C238.992 36.3359 237.649 37.6791 237.649 39.3359H240.649ZM242.313 9.875H245.313C245.313 8.21815 243.97 6.875 242.313 6.875V9.875ZM242.313 44V47C243.97 47 245.313 45.6569 245.313 44H242.313ZM236.43 44H233.43C233.43 45.6569 234.773 47 236.43 47V44ZM236.43 9.875V6.875C234.773 6.875 233.43 8.21815 233.43 9.875H236.43ZM256.399 24.125H259.399C259.399 22.4681 258.056 21.125 256.399 21.125V24.125ZM256.399 28.7188V31.7188C258.056 31.7188 259.399 30.3756 259.399 28.7188H256.399ZM240.649 28.7188H237.649C237.649 30.3756 238.992 31.7188 240.649 31.7188V28.7188ZM240.649 24.125V21.125C238.992 21.125 237.649 22.4681 237.649 24.125H240.649ZM258.649 9.875H261.649C261.649 8.21815 260.306 6.875 258.649 6.875V9.875ZM258.649 14.5625V17.5625C260.306 17.5625 261.649 16.2194 261.649 14.5625H258.649ZM240.649 14.5625H237.649C237.649 16.2194 238.992 17.5625 240.649 17.5625V14.5625ZM240.649 9.875V6.875C238.992 6.875 237.649 8.21815 237.649 9.875H240.649ZM255.766 39.3359V44H261.766V39.3359H255.766ZM258.766 41H240.649V47H258.766V41ZM243.649 44V39.3359H237.649V44H243.649ZM240.649 42.3359H258.766V36.3359H240.649V42.3359ZM239.313 9.875V44H245.313V9.875H239.313ZM242.313 41H236.43V47H242.313V41ZM239.43 44V9.875H233.43V44H239.43ZM236.43 12.875H242.313V6.875H236.43V12.875ZM253.399 24.125V28.7188H259.399V24.125H253.399ZM256.399 25.7188H240.649V31.7188H256.399V25.7188ZM243.649 28.7188V24.125H237.649V28.7188H243.649ZM240.649 27.125H256.399V21.125H240.649V27.125ZM255.649 9.875V14.5625H261.649V9.875H255.649ZM258.649 11.5625H240.649V17.5625H258.649V11.5625ZM243.649 14.5625V9.875H237.649V14.5625H243.649ZM240.649 12.875H258.649V6.875H240.649V12.875ZM285.967 28.5781V31.5781C286.641 31.5781 287.295 31.3516 287.824 30.935L285.967 28.5781ZM277.272 28.5781L274.272 28.6109C274.29 30.2549 275.628 31.5781 277.272 31.5781V28.5781ZM277.225 24.2891V21.2891C276.424 21.2891 275.656 21.6097 275.092 22.1794C274.529 22.7491 274.217 23.5206 274.225 24.3218L277.225 24.2891ZM288.077 23.7266L289.241 26.4915C289.249 26.4882 289.257 26.4849 289.264 26.4815L288.077 23.7266ZM290.139 22.0625L292.652 23.7013C292.658 23.6931 292.663 23.6849 292.668 23.6766L290.139 22.0625ZM288.171 15.0547L287.134 17.8697C287.139 17.8717 287.144 17.8736 287.149 17.8755L288.171 15.0547ZM279.053 14.5625V11.5625C277.397 11.5625 276.053 12.9056 276.053 14.5625H279.053ZM279.053 44V47C280.71 47 282.053 45.6569 282.053 44H279.053ZM273.171 44H270.171C270.171 45.6569 271.514 47 273.171 47V44ZM273.171 9.875V6.875C271.514 6.875 270.171 8.21815 270.171 9.875H273.171ZM289.764 10.4141L289.051 13.3281L289.058 13.3298L289.764 10.4141ZM293.538 12.1016L291.75 14.5103C291.763 14.5204 291.777 14.5304 291.791 14.5403L293.538 12.1016ZM295.905 14.9609L293.179 16.2134C293.184 16.2235 293.188 16.2336 293.193 16.2436L295.905 14.9609ZM295.717 22.9531L298.311 24.4604C298.314 24.4554 298.317 24.4503 298.32 24.4453L295.717 22.9531ZM287.842 27.1016L287.627 24.1093C287.029 24.1524 286.458 24.3737 285.986 24.7447L287.842 27.1016ZM275.421 44L272.812 42.5186C272.285 43.4473 272.291 44.5863 272.828 45.5093C273.365 46.4323 274.353 47 275.421 47V44ZM278.069 39.3359V36.3359C276.99 36.3359 275.993 36.9159 275.46 37.8546L278.069 39.3359ZM289.038 38.6797L290.361 41.3724C290.373 41.3662 290.386 41.3599 290.398 41.3535L289.038 38.6797ZM291.03 36.8281L288.422 35.3452C288.419 35.3509 288.416 35.3566 288.412 35.3623L291.03 36.8281ZM291.124 31.1562L288.41 32.4361C288.414 32.4428 288.417 32.4495 288.42 32.4561L291.124 31.1562ZM289.272 29.2578L287.853 31.9008C287.866 31.9076 287.878 31.9144 287.891 31.9211L289.272 29.2578ZM279.358 28.5781L276.358 28.5453C276.35 29.3466 276.662 30.1181 277.225 30.6878C277.789 31.2575 278.557 31.5781 279.358 31.5781V28.5781ZM279.405 24.2891V21.2891C277.761 21.2891 276.423 22.6123 276.405 24.2563L279.405 24.2891ZM288.007 24.2891L290.319 22.3784C289.75 21.6885 288.901 21.2891 288.007 21.2891V24.2891ZM289.342 25.9062L287.03 27.8169C287.577 28.4799 288.383 28.8759 289.243 28.9046L289.342 25.9062ZM293.96 27.1484L292.349 29.6794C292.354 29.6826 292.359 29.6857 292.364 29.6888L293.96 27.1484ZM296.139 39.5234L293.623 37.8904C293.619 37.8967 293.615 37.903 293.611 37.9093L296.139 39.5234ZM292.085 42.875L293.258 45.6362C293.264 45.6333 293.271 45.6303 293.278 45.6274L292.085 42.875ZM285.967 25.5781H277.272V31.5781H285.967V25.5781ZM280.272 28.5453L280.225 24.2563L274.225 24.3218L274.272 28.6109L280.272 28.5453ZM277.225 27.2891H284.819V21.2891H277.225V27.2891ZM284.819 27.2891C286.377 27.2891 287.883 27.0633 289.241 26.4915L286.913 20.9617C286.49 21.1398 285.824 21.2891 284.819 21.2891V27.2891ZM289.264 26.4815C290.629 25.8933 291.815 24.9855 292.652 23.7013L287.627 20.4237C287.527 20.577 287.337 20.7785 286.889 20.9716L289.264 26.4815ZM292.668 23.6766C293.497 22.3775 293.842 20.9107 293.842 19.4141H287.842C287.842 19.98 287.719 20.2787 287.611 20.4484L292.668 23.6766ZM293.842 19.4141C293.842 17.9122 293.557 16.3927 292.749 15.0652L287.624 18.1848C287.691 18.2948 287.842 18.6347 287.842 19.4141H293.842ZM292.749 15.0652C291.905 13.6794 290.642 12.759 289.192 12.2339L287.149 17.8755C287.512 18.0066 287.592 18.1331 287.624 18.1848L292.749 15.0652ZM289.208 12.2397C287.869 11.7464 286.344 11.5625 284.749 11.5625V17.5625C285.935 17.5625 286.691 17.7067 287.134 17.8697L289.208 12.2397ZM284.749 11.5625H279.053V17.5625H284.749V11.5625ZM276.053 14.5625V44H282.053V14.5625H276.053ZM279.053 41H273.171V47H279.053V41ZM276.171 44V9.875H270.171V44H276.171ZM273.171 12.875H284.749V6.875H273.171V12.875ZM284.749 12.875C286.438 12.875 287.864 13.0375 289.051 13.3281L290.477 7.50002C288.727 7.07184 286.809 6.875 284.749 6.875V12.875ZM289.058 13.3298C290.224 13.6121 291.096 14.0254 291.75 14.5103L295.326 9.69283C293.917 8.64643 292.273 7.93478 290.47 7.4983L289.058 13.3298ZM291.791 14.5403C292.419 14.9905 292.868 15.5369 293.179 16.2134L298.631 13.7084C297.879 12.0725 296.75 10.7126 295.285 9.66282L291.791 14.5403ZM293.193 16.2436C293.51 16.9127 293.725 17.8294 293.725 19.0859H299.725C299.725 17.1549 299.394 15.3217 298.617 13.6783L293.193 16.2436ZM293.725 19.0859C293.725 19.991 293.515 20.7623 293.115 21.461L298.32 24.4453C299.263 22.8002 299.725 20.9933 299.725 19.0859H293.725ZM293.124 21.4459C292.754 22.0815 292.179 22.6656 291.276 23.171L294.206 28.4071C295.928 27.4438 297.337 26.1372 298.311 24.4604L293.124 21.4459ZM291.276 23.171C290.445 23.6359 289.269 23.9911 287.627 24.1093L288.058 30.0938C290.323 29.9308 292.412 29.4109 294.206 28.4071L291.276 23.171ZM285.986 24.7447L284.111 26.2212L287.824 30.935L289.699 29.4585L285.986 24.7447ZM285.71 41H275.421V47H285.71V41ZM278.029 45.4814L280.678 40.8173L275.46 37.8546L272.812 42.5186L278.029 45.4814ZM278.069 42.3359H285.71V36.3359H278.069V42.3359ZM285.71 42.3359C287.348 42.3359 288.943 42.0685 290.361 41.3724L287.715 35.987C287.351 36.1659 286.727 36.3359 285.71 36.3359V42.3359ZM290.398 41.3535C291.754 40.6635 292.887 39.6525 293.648 38.2939L288.412 35.3623C288.298 35.5663 288.102 35.7897 287.677 36.0059L290.398 41.3535ZM293.638 38.311C294.386 36.9947 294.71 35.5379 294.71 34.0391H288.71C288.71 34.6652 288.58 35.0678 288.422 35.3452L293.638 38.311ZM294.71 34.0391C294.71 32.5813 294.453 31.157 293.828 29.8564L288.42 32.4561C288.576 32.7805 288.71 33.2781 288.71 34.0391H294.71ZM293.837 29.8764C293.155 28.4297 292.057 27.3224 290.653 26.5945L287.891 31.9211C288.175 32.0683 288.312 32.2265 288.41 32.4361L293.837 29.8764ZM290.692 26.6148C289.267 25.8497 287.627 25.5781 285.967 25.5781V31.5781C287.027 31.5781 287.59 31.7597 287.853 31.9008L290.692 26.6148ZM285.967 25.5781H279.358V31.5781H285.967V25.5781ZM282.358 28.6109L282.405 24.3218L276.405 24.2563L276.358 28.5453L282.358 28.6109ZM279.405 27.2891H288.007V21.2891H279.405V27.2891ZM285.694 26.1997L287.03 27.8169L291.655 23.9956L290.319 22.3784L285.694 26.1997ZM289.243 28.9046C290.746 28.9547 291.72 29.2791 292.349 29.6794L295.57 24.6175C293.793 23.4866 291.689 22.9828 289.442 22.9079L289.243 28.9046ZM292.364 29.6888C293.139 30.1756 293.648 30.7552 293.981 31.4389L299.375 28.8111C298.521 27.0573 297.218 25.6525 295.556 24.6081L292.364 29.6888ZM293.981 31.4389C294.368 32.2329 294.569 33.094 294.569 34.0625H300.569C300.569 32.2185 300.176 30.4546 299.375 28.8111L293.981 31.4389ZM294.569 34.0625C294.569 35.7943 294.192 37.013 293.623 37.8904L298.656 41.1565C299.993 39.0964 300.569 36.6744 300.569 34.0625H294.569ZM293.611 37.9093C293.028 38.8219 292.168 39.569 290.891 40.1226L293.278 45.6274C295.533 44.6498 297.376 43.1625 298.668 41.1375L293.611 37.9093ZM290.912 40.1138C289.609 40.6671 287.905 41 285.71 41V47C288.483 47 291.029 46.5829 293.258 45.6362L290.912 40.1138ZM337.277 44L334.277 43.9699C334.269 44.7707 334.581 45.5415 335.145 46.1106C335.708 46.6798 336.476 47 337.277 47V44ZM337.324 39.3359V36.3359C335.679 36.3359 334.34 37.6608 334.324 39.3058L337.324 39.3359ZM349.863 37.9531L348.243 35.4278C348.239 35.4305 348.235 35.4332 348.231 35.4359L349.863 37.9531ZM353.097 33.9922L350.338 32.8135C350.335 32.8205 350.332 32.8277 350.329 32.8348L353.097 33.9922ZM353.566 21.1016L350.681 21.9257C350.684 21.9355 350.687 21.9452 350.69 21.9549L353.566 21.1016ZM351.738 17.5156L349.421 19.4214C349.427 19.4288 349.433 19.4361 349.439 19.4435L351.738 17.5156ZM348.785 15.3125L347.594 18.0661C347.598 18.068 347.603 18.0699 347.607 18.0718L348.785 15.3125ZM337.136 14.5625H334.136C334.136 16.2194 335.479 17.5625 337.136 17.5625V14.5625ZM337.136 9.875V6.875C335.479 6.875 334.136 8.21815 334.136 9.875H337.136ZM350.988 11.0234L349.854 13.8008C349.86 13.8035 349.867 13.8062 349.874 13.8089L350.988 11.0234ZM355.839 14.2812L353.671 16.3544C353.675 16.3585 353.679 16.3626 353.683 16.3667L355.839 14.2812ZM355.839 39.6172L357.984 41.7145C357.988 41.7106 357.992 41.7066 357.996 41.7027L355.839 39.6172ZM350.917 42.875L352.024 45.6636L352.036 45.6589L350.917 42.875ZM340.535 9.875H343.535C343.535 8.21815 342.192 6.875 340.535 6.875V9.875ZM340.535 44V47C342.192 47 343.535 45.6569 343.535 44H340.535ZM334.652 44H331.652C331.652 45.6569 332.995 47 334.652 47V44ZM334.652 9.875V6.875C332.995 6.875 331.652 8.21815 331.652 9.875H334.652ZM344.566 41H337.277V47H344.566V41ZM340.277 44.0301L340.324 39.3661L334.324 39.3058L334.277 43.9699L340.277 44.0301ZM337.324 42.3359H344.566V36.3359H337.324V42.3359ZM344.566 42.3359C347.113 42.3359 349.48 41.7765 351.495 40.4704L348.231 35.4359C347.402 35.9735 346.238 36.3359 344.566 36.3359V42.3359ZM351.482 40.4784C353.479 39.1977 354.934 37.3768 355.865 35.1496L350.329 32.8348C349.823 34.0451 349.121 34.8648 348.243 35.4278L351.482 40.4784ZM355.856 35.1709C356.786 32.9935 357.199 30.5262 357.199 27.8516H351.199C351.199 29.9269 350.877 31.5534 350.338 32.8135L355.856 35.1709ZM357.199 27.8516V26H351.199V27.8516H357.199ZM357.199 26C357.199 23.9344 356.963 22.0048 356.442 20.2482L350.69 21.9549C351.012 23.0421 351.199 24.3781 351.199 26H357.199ZM356.451 20.2774C355.948 18.5186 355.162 16.9293 354.036 15.5878L349.439 19.4435C349.939 20.0394 350.371 20.8408 350.681 21.9257L356.451 20.2774ZM354.055 15.6098C352.947 14.2632 351.569 13.239 349.962 12.5532L347.607 18.0718C348.344 18.386 348.935 18.8305 349.421 19.4214L354.055 15.6098ZM349.975 12.5589C348.375 11.8669 346.621 11.5625 344.777 11.5625V17.5625C345.964 17.5625 346.882 17.7581 347.594 18.0661L349.975 12.5589ZM344.777 11.5625H337.136V17.5625H344.777V11.5625ZM340.136 14.5625V9.875H334.136V14.5625H340.136ZM337.136 12.875H344.777V6.875H337.136V12.875ZM344.777 12.875C346.7 12.875 348.379 13.1987 349.854 13.8008L352.122 8.24606C349.847 7.31696 347.385 6.875 344.777 6.875V12.875ZM349.874 13.8089C351.361 14.4039 352.616 15.251 353.671 16.3544L358.008 12.2081C356.344 10.4678 354.364 9.14298 352.102 8.23801L349.874 13.8089ZM353.683 16.3667C354.749 17.4693 355.59 18.8097 356.19 20.4318L361.817 18.3494C360.949 16.0028 359.68 13.9369 357.996 12.1958L353.683 16.3667ZM356.19 20.4318C356.783 22.0344 357.105 23.8934 357.105 26.0469H363.105C363.105 23.2941 362.693 20.7156 361.817 18.3494L356.19 20.4318ZM357.105 26.0469V27.8516H363.105V26.0469H357.105ZM357.105 27.8516C357.105 30.005 356.783 31.864 356.19 33.4666L361.817 35.549C362.693 33.1829 363.105 30.6044 363.105 27.8516H357.105ZM356.19 33.4666C355.59 35.0887 354.749 36.4291 353.683 37.5317L357.996 41.7027C359.68 39.9615 360.949 37.8957 361.817 35.549L356.19 33.4666ZM353.694 37.5198C352.623 38.6153 351.337 39.4736 349.799 40.0911L352.036 45.6589C354.311 44.7452 356.305 43.4316 357.984 41.7145L353.694 37.5198ZM349.811 40.0864C348.322 40.6771 346.588 41 344.566 41V47C347.231 47 349.732 46.5729 352.024 45.6636L349.811 40.0864ZM337.535 9.875V44H343.535V9.875H337.535ZM340.535 41H334.652V47H340.535V41ZM337.652 44V9.875H331.652V44H337.652ZM334.652 12.875H340.535V6.875H334.652V12.875ZM395.787 39.3359H398.787C398.787 37.6791 397.444 36.3359 395.787 36.3359V39.3359ZM395.787 44V47C397.444 47 398.787 45.6569 398.787 44H395.787ZM377.67 44H374.67C374.67 45.6569 376.013 47 377.67 47V44ZM377.67 39.3359V36.3359C376.013 36.3359 374.67 37.6791 374.67 39.3359H377.67ZM379.334 9.875H382.334C382.334 8.21815 380.991 6.875 379.334 6.875V9.875ZM379.334 44V47C380.991 47 382.334 45.6569 382.334 44H379.334ZM373.451 44H370.451C370.451 45.6569 371.794 47 373.451 47V44ZM373.451 9.875V6.875C371.794 6.875 370.451 8.21815 370.451 9.875H373.451ZM393.42 24.125H396.42C396.42 22.4681 395.077 21.125 393.42 21.125V24.125ZM393.42 28.7188V31.7188C395.077 31.7188 396.42 30.3756 396.42 28.7188H393.42ZM377.67 28.7188H374.67C374.67 30.3756 376.013 31.7188 377.67 31.7188V28.7188ZM377.67 24.125V21.125C376.013 21.125 374.67 22.4681 374.67 24.125H377.67ZM395.67 9.875H398.67C398.67 8.21815 397.327 6.875 395.67 6.875V9.875ZM395.67 14.5625V17.5625C397.327 17.5625 398.67 16.2194 398.67 14.5625H395.67ZM377.67 14.5625H374.67C374.67 16.2194 376.013 17.5625 377.67 17.5625V14.5625ZM377.67 9.875V6.875C376.013 6.875 374.67 8.21815 374.67 9.875H377.67ZM392.787 39.3359V44H398.787V39.3359H392.787ZM395.787 41H377.67V47H395.787V41ZM380.67 44V39.3359H374.67V44H380.67ZM377.67 42.3359H395.787V36.3359H377.67V42.3359ZM376.334 9.875V44H382.334V9.875H376.334ZM379.334 41H373.451V47H379.334V41ZM376.451 44V9.875H370.451V44H376.451ZM373.451 12.875H379.334V6.875H373.451V12.875ZM390.42 24.125V28.7188H396.42V24.125H390.42ZM393.42 25.7188H377.67V31.7188H393.42V25.7188ZM380.67 28.7188V24.125H374.67V28.7188H380.67ZM377.67 27.125H393.42V21.125H377.67V27.125ZM392.67 9.875V14.5625H398.67V9.875H392.67ZM395.67 11.5625H377.67V17.5625H395.67V11.5625ZM380.67 14.5625V9.875H374.67V14.5625H380.67ZM377.67 12.875H395.67V6.875H377.67V12.875ZM427.817 33.3359L425.005 34.3805C425.013 34.4038 425.022 34.427 425.031 34.4501L427.817 33.3359ZM424.465 30.5234L423.214 33.2499C423.232 33.2581 423.25 33.2661 423.268 33.2739L424.465 30.5234ZM420.809 29.1875L419.927 32.0548L419.933 32.0568L420.809 29.1875ZM416.309 27.5234L415.056 30.2491C415.068 30.2549 415.081 30.2606 415.094 30.2662L416.309 27.5234ZM412.747 25.3672L410.851 27.6922C410.858 27.6981 410.865 27.704 410.872 27.7098L412.747 25.3672ZM410.379 22.5312L407.72 23.9189C407.722 23.9243 407.725 23.9296 407.728 23.9349L410.379 22.5312ZM410.403 15.0078L407.742 13.6226C407.737 13.6322 407.732 13.6419 407.727 13.6515L410.403 15.0078ZM412.911 12.0547L414.738 14.4338L414.743 14.43L412.911 12.0547ZM416.778 10.1094L417.654 12.9787C417.663 12.9759 417.672 12.973 417.681 12.9701L416.778 10.1094ZM428.239 10.8125L426.87 13.482L426.879 13.4867L428.239 10.8125ZM432.481 14.5859L429.936 16.1737C429.939 16.1797 429.943 16.1857 429.947 16.1917L432.481 14.5859ZM433.981 19.8125V22.8125C435.638 22.8125 436.981 21.4694 436.981 19.8125H433.981ZM428.145 19.8125H425.145C425.145 21.4694 426.488 22.8125 428.145 22.8125V19.8125ZM427.418 16.8359L424.774 18.2526C424.784 18.2715 424.794 18.2903 424.805 18.309L427.418 16.8359ZM425.262 14.7734L423.869 17.4301C423.874 17.4332 423.88 17.4362 423.886 17.4393L425.262 14.7734ZM415.864 20.5625L413.245 22.026C413.251 22.0371 413.257 22.0483 413.264 22.0594L415.864 20.5625ZM417.223 22.0156L415.433 24.423C415.446 24.433 415.46 24.4428 415.474 24.4526L417.223 22.0156ZM422.778 24.3828L423.633 21.5074C423.624 21.5047 423.616 21.5022 423.607 21.4996L422.778 24.3828ZM427.723 26.2578L426.405 28.953C426.414 28.9569 426.422 28.9608 426.43 28.9647L427.723 26.2578ZM433.348 31.4844L430.591 32.6661C430.593 32.6709 430.595 32.6758 430.597 32.6806L433.348 31.4844ZM433.184 39.0547L435.86 40.411C435.862 40.4061 435.865 40.4012 435.867 40.3963L433.184 39.0547ZM430.7 41.9844L432.5 44.3844L432.505 44.3802L430.7 41.9844ZM426.856 43.8359L427.676 46.7217C427.683 46.7198 427.689 46.7179 427.696 46.7159L426.856 43.8359ZM417.036 43.8125L416.234 46.7035L416.241 46.7055L417.036 43.8125ZM412.723 41.8203L411.005 44.2794C411.011 44.2841 411.018 44.2887 411.025 44.2933L412.723 41.8203ZM409.629 38.4453L407.015 39.9175C407.018 39.9218 407.02 39.9262 407.023 39.9305L409.629 38.4453ZM408.481 33.6875V30.6875C406.824 30.6875 405.481 32.0306 405.481 33.6875H408.481ZM414.364 33.6875H417.364C417.364 32.0306 416.021 30.6875 414.364 30.6875V33.6875ZM414.926 36.5234L412.222 37.8216C412.229 37.8362 412.236 37.8507 412.243 37.8651L414.926 36.5234ZM416.543 38.4453L414.779 40.8715C414.791 40.8804 414.803 40.8891 414.816 40.8978L416.543 38.4453ZM418.934 39.5234L418.183 42.4279L418.195 42.4309L418.934 39.5234ZM425.333 39.2891L424.179 36.5198C424.173 36.5221 424.168 36.5245 424.162 36.5268L425.333 39.2891ZM431.145 35.2109C431.145 34.1985 430.987 33.1845 430.602 32.2218L425.031 34.4501C425.084 34.5811 425.145 34.8171 425.145 35.2109H431.145ZM430.629 32.2914C430.216 31.1785 429.506 30.2733 428.662 29.5534L424.768 34.1184C424.88 34.2133 424.94 34.2846 424.971 34.3265C424.986 34.3474 424.995 34.3618 424.999 34.3697C425.002 34.3738 425.003 34.3766 425.004 34.3782C425.004 34.379 425.004 34.3796 425.004 34.38C425.005 34.3803 425.005 34.3805 425.005 34.3805L430.629 32.2914ZM428.662 29.5534C427.822 28.8366 426.779 28.2589 425.663 27.7729L423.268 33.2739C424.089 33.6317 424.546 33.929 424.768 34.1184L428.662 29.5534ZM425.717 27.7969C424.599 27.2839 423.243 26.7938 421.685 26.3182L419.933 32.0568C421.344 32.4874 422.425 32.888 423.214 33.2499L425.717 27.7969ZM421.691 26.3202C420.165 25.8507 418.778 25.3363 417.525 24.7807L415.094 30.2662C416.59 30.9294 418.203 31.5243 419.927 32.0548L421.691 26.3202ZM417.562 24.7977C416.392 24.2598 415.42 23.6638 414.621 23.0246L410.872 27.7098C412.105 28.6956 413.507 29.5371 415.056 30.2491L417.562 24.7977ZM414.642 23.0421C413.909 22.4445 413.389 21.8047 413.031 21.1276L407.728 23.9349C408.495 25.3828 409.552 26.6336 410.851 27.6922L414.642 23.0421ZM413.039 21.1436C412.733 20.5564 412.536 19.8036 412.536 18.8047H406.536C406.536 20.6183 406.901 22.3498 407.72 23.9189L413.039 21.1436ZM412.536 18.8047C412.536 17.8433 412.732 17.0484 413.079 16.3641L407.727 13.6515C406.917 15.2485 406.536 16.9848 406.536 18.8047H412.536ZM413.064 16.393C413.444 15.6626 413.987 15.011 414.738 14.4338L411.083 9.67553C409.678 10.7546 408.549 12.0718 407.742 13.6226L413.064 16.393ZM414.743 14.43C415.517 13.8328 416.473 13.3391 417.654 12.9787L415.902 7.24009C414.114 7.78588 412.492 8.58904 411.078 9.67934L414.743 14.43ZM417.681 12.9701C418.832 12.6066 420.163 12.4062 421.7 12.4062V6.40625C419.643 6.40625 417.692 6.67461 415.874 7.24863L417.681 12.9701ZM421.7 12.4062C423.863 12.4062 425.552 12.8064 426.87 13.482L429.608 8.14305C427.269 6.94363 424.598 6.40625 421.7 6.40625V12.4062ZM426.879 13.4867C428.292 14.2052 429.272 15.1095 429.936 16.1737L435.026 12.9982C433.721 10.9062 431.873 9.29482 429.598 8.13834L426.879 13.4867ZM429.947 16.1917C430.636 17.2793 430.981 18.4626 430.981 19.8125H436.981C436.981 17.3499 436.326 15.0488 435.015 12.9802L429.947 16.1917ZM433.981 16.8125H428.145V22.8125H433.981V16.8125ZM431.145 19.8125C431.145 18.2449 430.803 16.7318 430.032 15.3629L424.805 18.309C425.002 18.6588 425.145 19.1301 425.145 19.8125H431.145ZM430.063 15.4193C429.279 13.9567 428.091 12.8574 426.638 12.1076L423.886 17.4393C424.371 17.6894 424.62 17.9652 424.774 18.2526L430.063 15.4193ZM426.656 12.1168C425.145 11.3242 423.415 11.0234 421.629 11.0234V17.0234C422.781 17.0234 423.473 17.2227 423.869 17.4301L426.656 12.1168ZM421.629 11.0234C419.959 11.0234 418.343 11.2736 416.912 11.9283L419.409 17.3842C419.822 17.1952 420.519 17.0234 421.629 17.0234V11.0234ZM416.912 11.9283C415.564 12.5453 414.38 13.4666 413.56 14.7673L418.636 17.9671C418.722 17.8302 418.913 17.6109 419.409 17.3842L416.912 11.9283ZM413.56 14.7673C412.785 15.9973 412.418 17.3716 412.418 18.8047H418.418C418.418 18.4253 418.505 18.1746 418.636 17.9671L413.56 14.7673ZM412.418 18.8047C412.418 19.9297 412.685 21.0236 413.245 22.026L418.483 19.099C418.449 19.0389 418.418 18.9609 418.418 18.8047H412.418ZM413.264 22.0594C413.814 23.0144 414.582 23.79 415.433 24.423L419.013 19.6082C418.646 19.335 418.508 19.1418 418.464 19.0656L413.264 22.0594ZM415.474 24.4526C416.312 25.0544 417.287 25.5697 418.35 26.0201L420.69 20.4956C419.91 20.1647 419.353 19.8518 418.973 19.5787L415.474 24.4526ZM418.35 26.0201C419.41 26.4694 420.615 26.8825 421.949 27.266L423.607 21.4996C422.441 21.1644 421.474 20.8275 420.69 20.4956L418.35 26.0201ZM421.922 27.2582C423.693 27.7851 425.181 28.3541 426.405 28.953L429.041 23.5627C427.453 22.7865 425.644 22.1056 423.633 21.5074L421.922 27.2582ZM426.43 28.9647C427.626 29.5363 428.536 30.1465 429.212 30.7661L433.266 26.3432C432.067 25.2441 430.633 24.323 429.016 23.5509L426.43 28.9647ZM429.212 30.7661C429.857 31.3581 430.301 31.99 430.591 32.6661L436.106 30.3026C435.458 28.7913 434.495 27.4701 433.266 26.3432L429.212 30.7661ZM430.597 32.6806C430.876 33.3227 431.051 34.1316 431.051 35.1641H437.051C437.051 33.4465 436.758 31.8023 436.099 30.2882L430.597 32.6806ZM431.051 35.1641C431.051 36.1886 430.848 37.0182 430.501 37.713L435.867 40.3963C436.676 38.7787 437.051 37.0145 437.051 35.1641H431.051ZM430.508 37.6984C430.149 38.4079 429.628 39.0359 428.894 39.5885L432.505 44.3802C433.928 43.3079 435.063 41.9827 435.86 40.411L430.508 37.6984ZM428.9 39.5844C428.172 40.1303 427.23 40.602 426.016 40.9559L427.696 46.7159C429.482 46.1949 431.103 45.4322 432.5 44.3844L428.9 39.5844ZM426.036 40.9502C424.862 41.2838 423.488 41.4688 421.887 41.4688V47.4688C423.943 47.4688 425.881 47.2318 427.676 46.7217L426.036 40.9502ZM421.887 41.4688C420.517 41.4688 419.167 41.2865 417.83 40.9195L416.241 46.7055C418.092 47.2135 419.976 47.4688 421.887 47.4688V41.4688ZM417.837 40.9215C416.566 40.5691 415.433 40.0423 414.421 39.3473L411.025 44.2933C412.607 45.3796 414.349 46.1809 416.234 46.7035L417.837 40.9215ZM414.442 39.3612C413.501 38.7037 412.776 37.9084 412.236 36.9602L407.023 39.9305C408.014 41.6698 409.352 43.1244 411.005 44.2794L414.442 39.3612ZM412.243 36.9731C411.769 36.1312 411.481 35.0684 411.481 33.6875H405.481C405.481 35.9316 405.958 38.0407 407.015 39.9175L412.243 36.9731ZM408.481 36.6875H414.364V30.6875H408.481V36.6875ZM411.364 33.6875C411.364 35.1246 411.606 36.5382 412.222 37.8216L417.631 35.2252C417.497 34.9462 417.364 34.4692 417.364 33.6875H411.364ZM412.243 37.8651C412.842 39.064 413.692 40.0809 414.779 40.8715L418.308 36.0191C418.02 35.8098 417.791 35.5454 417.61 35.1818L412.243 37.8651ZM414.816 40.8978C415.83 41.6127 416.966 42.1131 418.183 42.4279L419.685 36.619C419.09 36.465 418.632 36.2467 418.271 35.9929L414.816 40.8978ZM418.195 42.4309C419.381 42.7326 420.616 42.875 421.887 42.875V36.875C421.065 36.875 420.331 36.7831 419.673 36.6159L418.195 42.4309ZM421.887 42.875C423.524 42.875 425.1 42.6457 426.503 42.0513L424.162 36.5268C423.721 36.7137 423.001 36.875 421.887 36.875V42.875ZM426.486 42.0583C427.859 41.4865 429.079 40.6005 429.938 39.3125L424.946 35.9843C424.867 36.1026 424.681 36.3104 424.179 36.5198L426.486 42.0583ZM429.938 39.3125C430.765 38.0718 431.145 36.6689 431.145 35.2109H425.145C425.145 35.5967 425.056 35.8188 424.946 35.9843L429.938 39.3125ZM454.176 9.875H457.176C457.176 8.21815 455.832 6.875 454.176 6.875V9.875ZM454.176 44V47C455.832 47 457.176 45.6569 457.176 44H454.176ZM448.293 44H445.293C445.293 45.6569 446.636 47 448.293 47V44ZM448.293 9.875V6.875C446.636 6.875 445.293 8.21815 445.293 9.875H448.293ZM451.176 9.875V44H457.176V9.875H451.176ZM454.176 41H448.293V47H454.176V41ZM451.293 44V9.875H445.293V44H451.293ZM448.293 12.875H454.176V6.875H448.293V12.875ZM494.891 26.5625H497.891C497.891 24.9056 496.548 23.5625 494.891 23.5625V26.5625ZM494.891 39.5938L497.284 41.4031C497.678 40.8821 497.891 40.2469 497.891 39.5938H494.891ZM492.618 41.7031L494.4 44.1164L494.406 44.1119L492.618 41.7031ZM476.376 43.3906L475.232 46.1642C475.239 46.167 475.246 46.1699 475.253 46.1727L476.376 43.3906ZM471.758 40.1797L469.541 42.2002C469.545 42.2046 469.549 42.2091 469.553 42.2135L471.758 40.1797ZM468.782 35.0469L465.947 36.0282L465.949 36.035L468.782 35.0469ZM468.688 18.8516L465.833 17.9293C465.832 17.9338 465.831 17.9383 465.829 17.9429L468.688 18.8516ZM475.907 10.5078L477.064 13.2756L477.077 13.2704L475.907 10.5078ZM488.727 10.8125L487.358 13.482C487.367 13.4866 487.376 13.4912 487.386 13.4958L488.727 10.8125ZM494.891 20.2812V23.2812C495.752 23.2812 496.572 22.9113 497.141 22.2656C497.711 21.6199 497.975 20.7607 497.868 19.9064L494.891 20.2812ZM489.126 20.2812L486.162 20.7491C486.393 22.2073 487.649 23.2812 489.126 23.2812V20.2812ZM488.024 17.0938L485.414 18.5728C485.42 18.5837 485.426 18.5945 485.433 18.6054L488.024 17.0938ZM485.727 14.8906L484.27 17.5131C484.287 17.5222 484.303 17.5312 484.32 17.54L485.727 14.8906ZM475.719 17.1172L473.247 15.4176C473.241 15.4264 473.235 15.4352 473.229 15.4441L475.719 17.1172ZM474.266 33.1016L471.369 33.8804C471.372 33.89 471.374 33.8997 471.377 33.9093L474.266 33.1016ZM476.001 36.7812L473.601 38.5812C473.607 38.5892 473.613 38.5971 473.619 38.605L476.001 36.7812ZM478.79 39.0547L477.51 41.7683C477.521 41.7733 477.532 41.7782 477.542 41.7831L478.79 39.0547ZM485.798 39.4766L486.538 42.3839C486.554 42.3797 486.57 42.3753 486.587 42.3709L485.798 39.4766ZM487.837 38.6562L489.427 41.2002C489.433 41.1959 489.44 41.1916 489.447 41.1872L487.837 38.6562ZM489.032 37.7188L491.21 39.782C491.738 39.2247 492.032 38.4863 492.032 37.7188H489.032ZM489.032 30.9453H492.032C492.032 29.2885 490.689 27.9453 489.032 27.9453V30.9453ZM481.93 30.9453H478.93C478.93 32.6022 480.273 33.9453 481.93 33.9453V30.9453ZM481.93 26.5625V23.5625C480.273 23.5625 478.93 24.9056 478.93 26.5625H481.93ZM491.891 26.5625V39.5938H497.891V26.5625H491.891ZM492.498 37.7844C492.257 38.1033 491.751 38.6101 490.83 39.2944L494.406 44.1119C495.547 43.2649 496.557 42.3654 497.284 41.4031L492.498 37.7844ZM490.836 39.2898C490.162 39.7873 489.133 40.3103 487.638 40.7946L489.488 46.5023C491.369 45.8929 493.042 45.1189 494.4 44.1164L490.836 39.2898ZM487.638 40.7946C486.346 41.2135 484.58 41.4688 482.258 41.4688V47.4688C484.968 47.4688 487.406 47.1772 489.488 46.5023L487.638 40.7946ZM482.258 41.4688C480.459 41.4688 478.884 41.1678 477.498 40.6086L475.253 46.1727C477.43 47.051 479.777 47.4688 482.258 47.4688V41.4688ZM477.519 40.6171C476.138 40.0479 474.963 39.2289 473.964 38.1459L469.553 42.2135C471.148 43.943 473.05 45.2646 475.232 46.1642L477.519 40.6171ZM473.976 38.1592C472.999 37.0866 472.201 35.739 471.614 34.0588L465.949 36.035C466.769 38.386 467.956 40.4603 469.541 42.2002L473.976 38.1592ZM471.617 34.0655C471.043 32.4075 470.727 30.436 470.727 28.1094H464.727C464.727 30.9703 465.115 33.6238 465.947 36.0282L471.617 34.0655ZM470.727 28.1094V25.7422H464.727V28.1094H470.727ZM470.727 25.7422C470.727 23.4074 471.018 21.4259 471.547 19.7603L465.829 17.9429C465.077 20.3085 464.727 22.9207 464.727 25.7422H470.727ZM471.543 19.7739C472.093 18.07 472.849 16.7203 473.768 15.6601L469.234 11.7305C467.715 13.4828 466.595 15.5706 465.833 17.9293L471.543 19.7739ZM473.768 15.6601C474.683 14.6039 475.772 13.816 477.064 13.2756L474.749 7.74007C472.604 8.63711 470.756 9.97423 469.234 11.7305L473.768 15.6601ZM477.077 13.2704C478.386 12.7159 479.94 12.4062 481.79 12.4062V6.40625C479.265 6.40625 476.896 6.83096 474.737 7.74525L477.077 13.2704ZM481.79 12.4062C484.274 12.4062 486.079 12.8257 487.358 13.482L490.096 8.14305C487.72 6.92427 484.899 6.40625 481.79 6.40625V12.4062ZM487.386 13.4958C488.764 14.1848 489.746 15.0934 490.431 16.2176L495.554 13.0949C494.24 10.9379 492.378 9.28393 490.069 8.12922L487.386 13.4958ZM490.431 16.2176C491.188 17.4596 491.696 18.922 491.915 20.6561L497.868 19.9064C497.555 17.4218 496.797 15.1342 495.554 13.0949L490.431 16.2176ZM494.891 17.2812H489.126V23.2812H494.891V17.2812ZM492.089 19.8134C491.85 18.2975 491.369 16.8743 490.615 15.5821L485.433 18.6054C485.773 19.1882 486.027 19.89 486.162 20.7491L492.089 19.8134ZM490.634 15.6147C489.807 14.1548 488.612 13.026 487.135 12.2413L484.32 17.54C484.843 17.8177 485.179 18.1577 485.414 18.5728L490.634 15.6147ZM487.184 12.2682C485.611 11.3941 483.778 11.0703 481.883 11.0703V17.0703C483.146 17.0703 483.875 17.2934 484.27 17.5131L487.184 12.2682ZM481.883 11.0703C480.141 11.0703 478.472 11.4024 476.956 12.1605L479.639 17.527C480.185 17.2539 480.907 17.0703 481.883 17.0703V11.0703ZM476.956 12.1605C475.447 12.9151 474.207 14.0221 473.247 15.4176L478.192 18.8168C478.607 18.2123 479.086 17.8036 479.639 17.527L476.956 12.1605ZM473.229 15.4441C472.318 16.7999 471.687 18.3665 471.278 20.0757L477.114 21.4712C477.392 20.3054 477.777 19.4344 478.21 18.7903L473.229 15.4441ZM471.278 20.0757C470.868 21.7898 470.68 23.6717 470.68 25.6953H476.68C476.68 24.0314 476.836 22.6321 477.114 21.4712L471.278 20.0757ZM470.68 25.6953V28.1094H476.68V25.6953H470.68ZM470.68 28.1094C470.68 30.1858 470.896 32.12 471.369 33.8804L477.163 32.3228C476.855 31.1769 476.68 29.783 476.68 28.1094H470.68ZM471.377 33.9093C471.863 35.6484 472.587 37.2291 473.601 38.5812L478.401 34.9813C477.915 34.3334 477.482 33.4609 477.155 32.2938L471.377 33.9093ZM473.619 38.605C474.663 39.9691 475.965 41.0397 477.51 41.7683L480.069 36.3411C479.427 36.0384 478.87 35.5934 478.383 34.9575L473.619 38.605ZM477.542 41.7831C479.08 42.486 480.749 42.8047 482.493 42.8047V36.8047C481.487 36.8047 480.687 36.6234 480.037 36.3263L477.542 41.7831ZM482.493 42.8047C483.972 42.8047 485.346 42.6871 486.538 42.3839L485.057 36.5693C484.53 36.7036 483.701 36.8047 482.493 36.8047V42.8047ZM486.587 42.3709C487.6 42.0945 488.586 41.7256 489.427 41.2002L486.247 36.1123C486.087 36.2119 485.714 36.3899 485.008 36.5823L486.587 42.3709ZM489.447 41.1872C490.079 40.7852 490.698 40.3219 491.21 39.782L486.854 35.6555C486.803 35.7093 486.625 35.871 486.226 36.1253L489.447 41.1872ZM492.032 37.7188V30.9453H486.032V37.7188H492.032ZM489.032 27.9453H481.93V33.9453H489.032V27.9453ZM484.93 30.9453V26.5625H478.93V30.9453H484.93ZM481.93 29.5625H494.891V23.5625H481.93V29.5625ZM536.637 9.875H539.637C539.637 8.21815 538.294 6.875 536.637 6.875V9.875ZM536.637 44V47C538.294 47 539.637 45.6569 539.637 44H536.637ZM530.754 44L528.212 45.592C528.76 46.468 529.721 47 530.754 47V44ZM515.45 19.5547L517.992 17.9627C517.282 16.8287 515.907 16.3019 514.622 16.6713C513.336 17.0406 512.45 18.2168 512.45 19.5547H515.45ZM515.45 44V47C517.107 47 518.45 45.6569 518.45 44H515.45ZM509.567 44H506.567C506.567 45.6569 507.91 47 509.567 47V44ZM509.567 9.875V6.875C507.91 6.875 506.567 8.21815 506.567 9.875H509.567ZM515.45 9.875L517.992 8.28172C517.443 7.40645 516.483 6.875 515.45 6.875V9.875ZM530.801 34.3672L528.259 35.9605C528.97 37.0938 530.345 37.62 531.63 37.2504C532.916 36.8808 533.801 35.7048 533.801 34.3672H530.801ZM530.801 9.875V6.875C529.144 6.875 527.801 8.21815 527.801 9.875H530.801ZM533.637 9.875V44H539.637V9.875H533.637ZM536.637 41H530.754V47H536.637V41ZM533.297 42.408L517.992 17.9627L512.907 21.1467L528.212 45.592L533.297 42.408ZM512.45 19.5547V44H518.45V19.5547H512.45ZM515.45 41H509.567V47H515.45V41ZM512.567 44V9.875H506.567V44H512.567ZM509.567 12.875H515.45V6.875H509.567V12.875ZM512.908 11.4683L528.259 35.9605L533.343 32.7739L517.992 8.28172L512.908 11.4683ZM533.801 34.3672V9.875H527.801V34.3672H533.801ZM530.801 12.875H536.637V6.875H530.801V12.875ZM575.581 39.3359H578.581C578.581 37.6791 577.238 36.3359 575.581 36.3359V39.3359ZM575.581 44V47C577.238 47 578.581 45.6569 578.581 44H575.581ZM557.464 44H554.464C554.464 45.6569 555.807 47 557.464 47V44ZM557.464 39.3359V36.3359C555.807 36.3359 554.464 37.6791 554.464 39.3359H557.464ZM559.128 9.875H562.128C562.128 8.21815 560.785 6.875 559.128 6.875V9.875ZM559.128 44V47C560.785 47 562.128 45.6569 562.128 44H559.128ZM553.245 44H550.245C550.245 45.6569 551.588 47 553.245 47V44ZM553.245 9.875V6.875C551.588 6.875 550.245 8.21815 550.245 9.875H553.245ZM573.214 24.125H576.214C576.214 22.4681 574.871 21.125 573.214 21.125V24.125ZM573.214 28.7188V31.7188C574.871 31.7188 576.214 30.3756 576.214 28.7188H573.214ZM557.464 28.7188H554.464C554.464 30.3756 555.807 31.7188 557.464 31.7188V28.7188ZM557.464 24.125V21.125C555.807 21.125 554.464 22.4681 554.464 24.125H557.464ZM575.464 9.875H578.464C578.464 8.21815 577.121 6.875 575.464 6.875V9.875ZM575.464 14.5625V17.5625C577.121 17.5625 578.464 16.2194 578.464 14.5625H575.464ZM557.464 14.5625H554.464C554.464 16.2194 555.807 17.5625 557.464 17.5625V14.5625ZM557.464 9.875V6.875C555.807 6.875 554.464 8.21815 554.464 9.875H557.464ZM572.581 39.3359V44H578.581V39.3359H572.581ZM575.581 41H557.464V47H575.581V41ZM560.464 44V39.3359H554.464V44H560.464ZM557.464 42.3359H575.581V36.3359H557.464V42.3359ZM556.128 9.875V44H562.128V9.875H556.128ZM559.128 41H553.245V47H559.128V41ZM556.245 44V9.875H550.245V44H556.245ZM553.245 12.875H559.128V6.875H553.245V12.875ZM570.214 24.125V28.7188H576.214V24.125H570.214ZM573.214 25.7188H557.464V31.7188H573.214V25.7188ZM560.464 28.7188V24.125H554.464V28.7188H560.464ZM557.464 27.125H573.214V21.125H557.464V27.125ZM572.464 9.875V14.5625H578.464V9.875H572.464ZM575.464 11.5625H557.464V17.5625H575.464V11.5625ZM560.464 14.5625V9.875H554.464V14.5625H560.464ZM557.464 12.875H575.464V6.875H557.464V12.875ZM589.986 9.875V6.875C588.329 6.875 586.986 8.21815 586.986 9.875H589.986ZM612.884 14.5156L610.349 16.1196C610.355 16.1296 610.362 16.1397 610.368 16.1497L612.884 14.5156ZM610.775 27.9219L612.601 30.3022C612.607 30.297 612.614 30.2917 612.621 30.2864L610.775 27.9219ZM606.697 29.9609L605.816 27.093C605.668 27.1386 605.523 27.1956 605.383 27.2636L606.697 29.9609ZM604.915 30.8281V33.8281C605.37 33.8281 605.819 33.7246 606.228 33.5255L604.915 30.8281ZM594.064 30.8281L591.064 30.8583C591.08 32.5033 592.419 33.8281 594.064 33.8281V30.8281ZM594.017 26.1641V23.1641C593.216 23.1641 592.448 23.4843 591.885 24.0534C591.321 24.6226 591.009 25.3934 591.017 26.1942L594.017 26.1641ZM607.775 23.375L605.15 21.9221C605.147 21.9275 605.144 21.933 605.141 21.9384L607.775 23.375ZM607.798 17.3281L605.124 18.6885C605.134 18.7074 605.144 18.7261 605.154 18.7448L607.798 17.3281ZM605.689 15.2891L604.33 17.9635C604.341 17.9695 604.353 17.9753 604.365 17.9811L605.689 15.2891ZM595.868 14.5625V11.5625C594.212 11.5625 592.868 12.9056 592.868 14.5625H595.868ZM595.868 44V47C597.525 47 598.868 45.6569 598.868 44H595.868ZM589.986 44H586.986C586.986 45.6569 588.329 47 589.986 47V44ZM609.462 44L606.804 45.3902C607.321 46.3798 608.345 47 609.462 47V44ZM601.447 28.6719L601.435 25.6719C600.388 25.6759 599.418 26.2258 598.877 27.1228C598.337 28.0198 598.303 29.1339 598.788 30.0621L601.447 28.6719ZM607.611 28.6484L610.25 27.222C609.724 26.249 608.705 25.6443 607.599 25.6485L607.611 28.6484ZM615.743 43.6953H618.743C618.743 43.1972 618.619 42.707 618.383 42.2688L615.743 43.6953ZM615.743 44V47C617.4 47 618.743 45.6569 618.743 44H615.743ZM589.986 12.875H602.056V6.875H589.986V12.875ZM602.056 12.875C604.362 12.875 606.149 13.2241 607.51 13.8055L609.868 8.28822C607.572 7.30719 604.937 6.875 602.056 6.875V12.875ZM607.51 13.8055C608.836 14.3723 609.736 15.1515 610.349 16.1196L615.419 12.9117C614.094 10.8173 612.198 9.28392 609.868 8.28822L607.51 13.8055ZM610.368 16.1497C610.969 17.0752 611.361 18.3488 611.361 20.1406H617.361C617.361 17.4637 616.768 14.9873 615.4 12.8816L610.368 16.1497ZM611.361 20.1406C611.361 21.4746 611.117 22.5154 610.721 23.3382L616.126 25.9431C616.979 24.1721 617.361 22.2129 617.361 20.1406H611.361ZM610.721 23.3382C610.297 24.2177 609.708 24.9487 608.928 25.5573L612.621 30.2864C614.123 29.1138 615.3 27.6573 616.126 25.9431L610.721 23.3382ZM608.949 25.5416C608.13 26.1693 607.103 26.6982 605.816 27.093L607.577 32.8289C609.447 32.255 611.138 31.4245 612.601 30.3022L608.949 25.5416ZM605.383 27.2636L603.602 28.1308L606.228 33.5255L608.01 32.6583L605.383 27.2636ZM604.915 27.8281H594.064V33.8281H604.915V27.8281ZM597.064 30.798L597.017 26.1339L591.017 26.1942L591.064 30.8583L597.064 30.798ZM594.017 29.1641H602.15V23.1641H594.017V29.1641ZM602.15 29.1641C603.895 29.1641 605.587 28.8557 607.077 28.0611L604.254 22.767C603.868 22.9725 603.217 23.1641 602.15 23.1641V29.1641ZM607.077 28.0611C608.485 27.3101 609.635 26.229 610.408 24.8116L605.141 21.9384C604.977 22.2397 604.72 22.518 604.254 22.767L607.077 28.0611ZM610.399 24.8279C611.153 23.4674 611.501 21.9751 611.501 20.4219H605.501C605.501 21.0561 605.366 21.5326 605.15 21.9221L610.399 24.8279ZM611.501 20.4219C611.501 18.8367 611.186 17.3001 610.443 15.9115L605.154 18.7448C605.347 19.1062 605.501 19.6321 605.501 20.4219H611.501ZM610.472 15.9678C609.706 14.4614 608.509 13.3328 607.013 12.597L604.365 17.9811C604.775 18.1828 604.984 18.4136 605.124 18.6885L610.472 15.9678ZM607.048 12.6146C605.546 11.8515 603.83 11.5625 602.056 11.5625V17.5625C603.22 17.5625 603.925 17.7578 604.33 17.9635L607.048 12.6146ZM602.056 11.5625H595.868V17.5625H602.056V11.5625ZM592.868 14.5625V44H598.868V14.5625H592.868ZM595.868 41H589.986V47H595.868V41ZM592.986 44V9.875H586.986V44H592.986ZM612.121 42.6098L604.105 27.2817L598.788 30.0621L606.804 45.3902L612.121 42.6098ZM601.458 31.6719L607.622 31.6484L607.599 25.6485L601.435 25.6719L601.458 31.6719ZM604.971 30.0749L613.104 45.1218L618.383 42.2688L610.25 27.222L604.971 30.0749ZM612.743 43.6953V44H618.743V43.6953H612.743ZM615.743 41H609.462V47H615.743V41Z" fill="#003C6A"/>
<path d="M25.344 145.152C20.672 145.152 16.416 144.544 12.576 143.328C8.736 142.048 5.504 140.384 2.88 138.336L7.488 130.656C9.792 132.576 12.384 134.144 15.264 135.36C18.144 136.576 21.504 137.184 25.344 137.184C29.952 137.184 33.6 136.224 36.288 134.304C38.976 132.384 40.32 129.792 40.32 126.528C40.32 124.672 39.936 123.04 39.168 121.632C38.4 120.16 36.896 118.752 34.656 117.408C32.48 116 29.248 114.496 24.96 112.896C20.352 111.104 16.672 109.312 13.92 107.52C11.168 105.664 9.184 103.584 7.968 101.28C6.816 98.912 6.24 96.128 6.24 92.928C6.24 89.728 7.104 86.848 8.832 84.288C10.624 81.664 13.216 79.584 16.608 78.048C20.064 76.448 24.224 75.648 29.088 75.648C33.056 75.648 36.608 76.064 39.744 76.896C42.944 77.664 46.048 78.784 49.056 80.256L45.696 88.032C43.52 86.752 40.96 85.696 38.016 84.864C35.136 83.968 32.096 83.52 28.896 83.52C24.672 83.52 21.344 84.352 18.912 86.016C16.48 87.68 15.264 89.824 15.264 92.448C15.264 94.112 15.616 95.584 16.32 96.864C17.024 98.144 18.4 99.392 20.448 100.608C22.56 101.824 25.696 103.2 29.856 104.736C34.848 106.592 38.784 108.544 41.664 110.592C44.608 112.64 46.688 114.88 47.904 117.312C49.12 119.68 49.728 122.4 49.728 125.472C49.728 129.632 48.672 133.184 46.56 136.128C44.512 139.072 41.632 141.312 37.92 142.848C34.272 144.384 30.08 145.152 25.344 145.152ZM91.4265 145.152C83.6825 145.152 77.6025 142.848 73.1865 138.24C68.7705 133.632 66.5625 127.04 66.5625 118.464V76.8H75.6825V117.024C75.6825 123.424 76.9945 128.384 79.6185 131.904C82.2425 135.424 86.1785 137.184 91.4265 137.184C96.8665 137.184 100.931 135.488 103.619 132.096C106.307 128.64 107.651 123.616 107.651 117.024V76.8H116.483V118.08C116.483 123.712 115.427 128.576 113.315 132.672C111.267 136.704 108.355 139.808 104.579 141.984C100.867 144.096 96.4825 145.152 91.4265 145.152ZM132.315 144V136.896L168.027 84.672H133.947V76.8H178.491V83.712L142.779 135.936H179.835V144H132.315ZM220.558 145.152C212.814 145.152 206.734 142.848 202.318 138.24C197.902 133.632 195.694 127.04 195.694 118.464V76.8H204.814V117.024C204.814 123.424 206.126 128.384 208.75 131.904C211.374 135.424 215.31 137.184 220.558 137.184C225.998 137.184 230.062 135.488 232.75 132.096C235.438 128.64 236.782 123.616 236.782 117.024V76.8H245.614V118.08C245.614 123.712 244.558 128.576 242.446 132.672C240.398 136.704 237.486 139.808 233.71 141.984C229.998 144.096 225.614 145.152 220.558 145.152ZM308.006 145.152L275.366 113.088V144H266.246V76.8H275.366V107.424L303.974 76.512L310.118 82.176L283.91 109.44L314.342 138.624L308.006 145.152ZM328.703 144V76.8H337.823V144H328.703ZM409.169 144V118.464L385.841 80.544L393.521 75.936L414.065 110.016L434.225 76.32L441.425 80.544L418.289 118.464V144H409.169ZM479.214 145.152C471.47 145.152 465.39 142.848 460.974 138.24C456.558 133.632 454.35 127.04 454.35 118.464V76.8H463.47V117.024C463.47 123.424 464.782 128.384 467.406 131.904C470.03 135.424 473.966 137.184 479.214 137.184C484.654 137.184 488.718 135.488 491.406 132.096C494.094 128.64 495.438 123.616 495.438 117.024V76.8H504.27V118.08C504.27 123.712 503.214 128.576 501.102 132.672C499.054 136.704 496.142 139.808 492.366 141.984C488.654 144.096 484.27 145.152 479.214 145.152ZM566.663 145.152L534.023 113.088V144H524.903V76.8H534.023V107.424L562.631 76.512L568.775 82.176L542.567 109.44L572.999 138.624L566.663 145.152ZM633.535 144.96L626.047 125.76H594.943L587.455 144.768L579.679 141.6L605.983 76.8H615.967L641.887 141.6L633.535 144.96ZM597.823 118.08H623.071L610.495 85.824L597.823 118.08ZM698.044 145.152L665.404 113.088V144H656.284V76.8H665.404V107.424L694.012 76.512L700.156 82.176L673.948 109.44L704.38 138.624L698.044 145.152ZM743.674 145.152C738.682 145.152 734.234 144.256 730.33 142.464C726.426 140.608 723.098 138.112 720.346 134.976C717.658 131.776 715.578 128.064 714.106 123.84C712.698 119.616 711.994 115.104 711.994 110.304C711.994 103.712 713.242 97.824 715.738 92.64C718.298 87.392 721.946 83.264 726.682 80.256C731.418 77.184 737.082 75.648 743.674 75.648C748.602 75.648 753.018 76.544 756.922 78.336C760.89 80.128 764.25 82.624 767.002 85.824C769.754 89.024 771.834 92.704 773.242 96.864C774.714 101.024 775.45 105.504 775.45 110.304C775.45 115.104 774.714 119.616 773.242 123.84C771.834 128.064 769.754 131.776 767.002 134.976C764.25 138.112 760.922 140.608 757.018 142.464C753.114 144.256 748.666 145.152 743.674 145.152ZM743.674 137.28C748.602 137.28 752.73 136.096 756.058 133.728C759.386 131.36 761.882 128.16 763.546 124.128C765.274 120.032 766.138 115.424 766.138 110.304C766.138 106.848 765.626 103.52 764.602 100.32C763.578 97.12 762.106 94.272 760.186 91.776C758.266 89.216 755.898 87.2 753.082 85.728C750.33 84.256 747.194 83.52 743.674 83.52C739.002 83.52 734.97 84.704 731.578 87.072C728.25 89.44 725.69 92.64 723.898 96.672C722.17 100.704 721.306 105.248 721.306 110.304C721.306 113.76 721.786 117.12 722.746 120.384C723.77 123.584 725.242 126.464 727.162 129.024C729.082 131.584 731.418 133.6 734.17 135.072C736.986 136.544 740.154 137.28 743.674 137.28Z" fill="#003C6A"/>
</svg>
