<svg width="50" height="49" viewBox="0 0 50 49" fill="none" xmlns="http://www.w3.org/2000/svg">
<path d="M42 11.5C37.7812 11.5 34.5 14.875 34.5 19C34.5 22.0938 36.2812 24.7188 39 25.9375V33.3438C39 38.6875 34.2188 43.0938 28.5 43.0938C22.875 43.0938 18.1875 38.875 18 33.7188C24.75 32.3125 30 26.3125 30 19V4.46875C30 3.4375 29.1562 2.5 28.125 2.3125L22.2188 1.09375C21 0.8125 19.875 1.65625 19.5938 2.875L19.3125 4.28125C19.0312 5.5 19.875 6.71875 21.0938 7L23.9062 7.5625V18.9062C23.9062 23.875 19.9688 28 15 28C10.0312 28.0938 5.90625 24.0625 5.90625 19V7.5625L8.8125 7C10.0312 6.71875 10.875 5.59375 10.5938 4.375L10.3125 2.875C10.0312 1.65625 8.90625 0.8125 7.6875 1.09375L1.78125 2.21875C0.75 2.5 0 3.4375 0 4.46875V19C0 26.3125 5.15625 32.3125 12 33.7188C12.1875 42.25 19.5 49 28.5 49C37.5938 49 45 41.9688 45 33.25V25.9375C47.625 24.7188 49.5 22.0938 49.5 19.0938C49.5 14.875 46.125 11.5 42 11.5ZM42 21.25C40.6875 21.25 39.75 20.3125 39.75 19C39.75 17.7812 40.6875 16.75 42 16.75C43.2188 16.75 44.25 17.7812 44.25 19C44.25 20.3125 43.2188 21.25 42 21.25Z" fill="#F0A039"/>
</svg>
