<svg width="60" height="48" viewBox="0 0 60 48" fill="none" xmlns="http://www.w3.org/2000/svg">
<path d="M18 4.5C18 2.0625 19.9688 0 22.5 0H37.5C39.9375 0 42 2.0625 42 4.5V48H34.5V40.5C34.5 38.0625 32.4375 36 30 36C27.4688 36 25.5 38.0625 25.5 40.5V48H18V4.5ZM29.25 6C28.4062 6 27.75 6.75 27.75 7.5V9.75H25.5C24.6562 9.75 24 10.5 24 11.25V12.75C24 13.5938 24.6562 14.25 25.5 14.25H27.75V16.5C27.75 17.3438 28.4062 18 29.25 18H30.75C31.5 18 32.25 17.3438 32.25 16.5V14.25H34.5C35.25 14.25 36 13.5938 36 12.75V11.25C36 10.5 35.25 9.75 34.5 9.75H32.25V7.5C32.25 6.75 31.5 6 30.75 6H29.25ZM15 9V48H4.5C1.96875 48 0 46.0312 0 43.5V30H7.5C8.25 30 9 29.3438 9 28.5C9 27.75 8.25 27 7.5 27H0V21H7.5C8.25 21 9 20.3438 9 19.5C9 18.75 8.25 18 7.5 18H0V13.5C0 11.0625 1.96875 9 4.5 9H15ZM55.5 9C57.9375 9 60 11.0625 60 13.5V18H52.5C51.6562 18 51 18.75 51 19.5C51 20.3438 51.6562 21 52.5 21H60V27H52.5C51.6562 27 51 27.75 51 28.5C51 29.3438 51.6562 30 52.5 30H60V43.5C60 46.0312 57.9375 48 55.5 48H45V9H55.5Z" fill="#F27BAA"/>
</svg>
