<svg width="54" height="48" viewBox="0 0 54 48" fill="none" xmlns="http://www.w3.org/2000/svg">
<path d="M38.25 11.25C38.25 16.4062 31.3125 25.5 28.3125 29.25C27.6562 30.1875 26.25 30.1875 25.5938 29.25C22.5938 25.5 15.75 16.4062 15.75 11.25C15.75 5.0625 20.7188 0 27 0C33.1875 0 38.25 5.0625 38.25 11.25ZM27 14.25C29.0625 14.25 30.75 12.6562 30.75 10.5C30.75 8.4375 29.0625 6.75 27 6.75C24.8438 6.75 23.25 8.4375 23.25 10.5C23.25 12.6562 24.8438 14.25 27 14.25ZM39.8438 16.875C39.9375 16.7812 39.9375 16.6875 40.0312 16.5938L50.9062 12.1875C52.3125 11.625 54 12.6562 54 14.25V39.6562C54 40.5938 53.4375 41.4375 52.5 41.8125L39 47.1562V18.8438C39.2812 18.1875 39.5625 17.5312 39.8438 16.875ZM14.0625 16.875C14.3438 17.5312 14.625 18.1875 15 18.8438V42.375L3 47.1562C1.59375 47.7188 0 46.6875 0 45.0938V19.6875C0 18.75 0.46875 17.9062 1.40625 17.625L12.8438 13.0312C13.125 14.3438 13.5 15.6562 14.0625 16.875ZM30.6562 31.125C31.9688 29.5312 34.0312 26.9062 36 23.9062V47.3438L18 42.1875V23.9062C19.875 26.9062 21.9375 29.5312 23.25 31.125C25.125 33.5625 28.7812 33.5625 30.6562 31.125Z" fill="#88C17C"/>
</svg>
