<svg width="42" height="48" viewBox="0 0 42 48" fill="none" xmlns="http://www.w3.org/2000/svg">
<path d="M33 12C33 18.6562 27.5625 24 20.9062 24C14.3438 24 8.90625 18.6562 8.90625 12C8.90625 5.4375 14.3438 0 20.9062 0C27.5625 0 33 5.4375 33 12ZM26.9062 33.9375C24.375 34.6875 22.4062 37.0312 22.4062 39.75V42C22.4062 42.4688 22.5938 42.8438 22.875 43.125L24.375 44.625C24.9375 45.1875 25.9688 45.1875 26.5312 44.625C27.0938 44.0625 27.0938 43.0312 26.5312 42.4688L25.4062 41.4375V39.75C25.4062 38.1562 26.8125 36.75 28.4062 36.75C30.0938 36.75 31.5 38.1562 31.5 39.75V41.4375L30.375 42.4688C29.8125 43.0312 29.8125 44.0625 30.375 44.625C30.9375 45.1875 31.9688 45.1875 32.5312 44.625L34.0312 43.125C34.3125 42.8438 34.5 42.4688 34.5 42V39.75C34.5 37.0312 32.5312 34.6875 30 33.9375V28.9688C36.8438 30.6562 42 36.8438 42 44.25V45C42 46.6875 40.5938 48 39 48H3C1.3125 48 0 46.6875 0 45V44.25C0 36.8438 5.0625 30.6562 12 28.9688V34.7812C9.75 35.4375 8.25 37.4062 8.25 39.75C8.25 42.6562 10.5938 45 13.5 45C16.3125 45 18.75 42.6562 18.75 39.75C18.75 37.4062 17.1562 35.4375 15 34.7812V28.5938C15.1875 28.5938 15.4688 28.5 15.75 28.5H26.25C26.4375 28.5 26.7188 28.5938 27 28.5938L26.9062 33.9375ZM15.6562 39.75C15.6562 41.0625 14.7188 42 13.4062 42C12.1875 42 11.1562 41.0625 11.1562 39.75C11.1562 38.5312 12.1875 37.5 13.4062 37.5C14.7188 37.5 15.6562 38.5312 15.6562 39.75Z" fill="#57A3DF"/>
</svg>
